<?xml version="1.0" encoding="UTF-8"?>
<svg width="52px" height="52px" viewBox="0 0 52 52" version="1.1" xmlns="http://www.w3.org/2000/svg" xmlns:xlink="http://www.w3.org/1999/xlink">
    <!-- Generator: sketchtool 41.2 (35397) - http://www.bohemiancoding.com/sketch -->
    <title>F04D1B9B-A8A9-45BD-8E32-46F829642E69</title>
    <desc>Created with sketchtool.</desc>
    <defs>
        <linearGradient x1="-13.4246803%" y1="115.137821%" x2="100%" y2="0%" id="linearGradient-1">
            <stop stop-color="#547BF3" offset="0%"></stop>
            <stop stop-color="#38DBFD" offset="100%"></stop>
        </linearGradient>
    </defs>
    <g id="Page-1" stroke="none" stroke-width="1" fill="none" fill-rule="evenodd">
        <g id="CASH-GAMES-LANDING" transform="translate(-1063.000000, -602.000000)" fill="url(#linearGradient-1)">
            <path d="M1113.69915,626.700002 L1107.72271,626.700002 L1111.32452,623.097268 C1111.83238,622.589401 1111.83238,621.766935 1111.32452,621.259068 C1110.81666,620.751201 1109.99421,620.751201 1109.48635,621.259068 L1104.04551,626.700002 L1099.96964,626.700002 L1102.13194,624.538535 C1102.6398,624.030668 1102.6398,623.208201 1102.13194,622.700335 C1101.62409,622.192468 1100.80163,622.192468 1100.29378,622.700335 L1096.29331,626.700002 L1092.13771,626.700002 L1099.97224,618.865334 L1107.66725,618.865334 C1108.38484,618.865334 1108.96723,618.282934 1108.96723,617.565334 C1108.96723,616.847734 1108.38484,616.265334 1107.66725,616.265334 L1102.5722,616.265334 L1107.38039,611.457067 C1107.88824,610.949201 1107.88824,610.126734 1107.38039,609.618867 C1106.87253,609.111 1106.05008,609.111 1105.54222,609.618867 L1100.73403,614.427134 L1100.73403,609.332 C1100.73403,608.6144 1100.15164,608.032 1099.43405,608.032 C1098.71647,608.032 1098.13408,608.6144 1098.13408,609.332 L1098.13408,617.027134 L1090.29954,624.861802 L1090.29954,620.706135 L1094.29914,616.705601 C1094.807,616.197734 1094.807,615.375268 1094.29914,614.867401 C1093.79128,614.359534 1092.96883,614.359534 1092.46097,614.867401 L1090.29954,617.029734 L1090.29954,612.953801 L1095.74038,607.512867 C1096.24824,607.005 1096.24824,606.182534 1095.74038,605.674667 C1095.23252,605.1668 1094.41007,605.1668 1093.90221,605.674667 L1090.29954,609.276534 L1090.29954,603.3 C1090.29954,602.5824 1089.71715,602 1088.99956,602 C1088.28197,602 1087.69958,602.5824 1087.69958,603.3 L1087.69958,609.276534 L1084.09691,605.6738 C1083.58905,605.165934 1082.7666,605.165934 1082.25874,605.6738 C1081.75088,606.181667 1081.75088,607.004134 1082.25874,607.512 L1087.69958,612.952934 L1087.69958,617.028868 L1085.53815,614.866534 C1085.0303,614.358667 1084.20784,614.358667 1083.69998,614.866534 C1083.19213,615.374401 1083.19213,616.196868 1083.69998,616.704734 L1087.69958,620.705268 L1087.69958,624.860935 L1079.86505,617.026268 L1079.86505,609.331134 C1079.86505,608.613534 1079.28266,608.031134 1078.56507,608.031134 C1077.84748,608.031134 1077.26509,608.613534 1077.26509,609.331134 L1077.26509,614.426267 L1072.45691,609.618001 C1071.94905,609.110134 1071.1266,609.110134 1070.61874,609.618001 C1070.11088,610.125867 1070.11088,610.948334 1070.61874,611.456201 L1075.42692,616.264468 L1070.33188,616.264468 C1069.61429,616.264468 1069.0319,616.846868 1069.0319,617.564468 C1069.0319,618.282068 1069.61429,618.864468 1070.33188,618.864468 L1078.02688,618.864468 L1085.86142,626.699135 L1081.70582,626.699135 L1077.70535,622.699468 C1077.19749,622.191601 1076.37504,622.191601 1075.86718,622.699468 C1075.35933,623.207335 1075.35933,624.029801 1075.86718,624.537668 L1078.02948,626.699135 L1073.95362,626.699135 L1068.51364,621.258201 C1068.00578,620.750335 1067.18333,620.750335 1066.67547,621.258201 C1066.16761,621.766068 1066.16761,622.588535 1066.67547,623.096401 L1070.27728,626.699135 L1064.29998,626.699135 C1063.58239,626.700002 1063,627.282402 1063,628.000002 C1063,628.717602 1063.58239,629.300002 1064.29998,629.300002 L1070.27641,629.300002 L1066.6746,632.902735 C1066.16675,633.410602 1066.16675,634.233069 1066.6746,634.740936 C1066.92853,634.994869 1067.26133,635.121402 1067.59412,635.121402 C1067.92692,635.121402 1068.25971,634.994869 1068.51364,634.740936 L1073.95362,629.300002 L1078.02948,629.300002 L1075.86718,631.461469 C1075.35933,631.969335 1075.35933,632.791802 1075.86718,633.299669 C1076.12111,633.553602 1076.45391,633.680135 1076.7867,633.680135 C1077.1195,633.680135 1077.45229,633.553602 1077.70622,633.299669 L1081.70669,629.300002 L1085.86228,629.300002 L1078.02775,637.134669 L1070.33274,637.134669 C1069.61516,637.134669 1069.03277,637.717069 1069.03277,638.434669 C1069.03277,639.152269 1069.61516,639.734669 1070.33274,639.734669 L1075.42779,639.734669 L1070.61961,644.542936 C1070.11175,645.050803 1070.11175,645.87327 1070.61961,646.381136 C1070.87353,646.63507 1071.20633,646.761603 1071.53912,646.761603 C1071.87192,646.761603 1072.20471,646.63507 1072.45864,646.381136 L1077.26683,641.572869 L1077.26683,646.668003 C1077.26683,647.385603 1077.84922,647.968004 1078.5668,647.968004 C1079.28439,647.968004 1079.86678,647.385603 1079.86678,646.668003 L1079.86678,638.972869 L1087.70132,631.138202 L1087.70132,635.293869 L1083.70172,639.294402 C1083.19386,639.802269 1083.19386,640.624736 1083.70172,641.132603 C1083.95565,641.386536 1084.28844,641.513069 1084.62124,641.513069 C1084.95403,641.513069 1085.28682,641.386536 1085.54075,641.132603 L1087.70218,638.970269 L1087.70218,643.046203 L1082.26134,648.48627 C1081.75348,648.994136 1081.75348,649.816603 1082.26134,650.324469 C1082.51527,650.578402 1082.84807,650.704935 1083.18087,650.704935 C1083.51366,650.704935 1083.84645,650.578402 1084.10039,650.324469 L1087.70306,646.722603 L1087.70306,652.7 C1087.70306,653.417599 1088.28545,654 1089.00304,654 C1089.72062,654 1090.30302,653.417599 1090.30302,652.7 L1090.30302,646.72347 L1093.90569,650.325332 C1094.15962,650.579265 1094.49241,650.705798 1094.82521,650.705798 C1095.158,650.705798 1095.4908,650.579265 1095.74472,650.325332 C1096.25258,649.817466 1096.25258,648.994999 1095.74472,648.487133 L1090.29955,643.046203 L1090.29955,638.970269 L1092.46098,641.132603 C1092.71491,641.386536 1093.0477,641.513069 1093.3805,641.513069 C1093.71329,641.513069 1094.04609,641.386536 1094.30002,641.132603 C1094.80787,640.624736 1094.80787,639.802269 1094.30002,639.294402 L1090.29955,635.293869 L1090.29955,631.138193 L1098.13408,638.972869 L1098.13408,646.667994 C1098.13408,647.385596 1098.71647,647.967997 1099.43406,647.967997 C1100.15165,647.967997 1100.73404,647.385596 1100.73404,646.667994 L1100.73404,641.572861 L1105.54223,646.381128 C1105.79615,646.635061 1106.12895,646.761594 1106.46174,646.761594 C1106.79454,646.761594 1107.12733,646.635061 1107.38126,646.381128 C1107.88912,645.873261 1107.88912,645.050794 1107.38126,644.542928 L1102.57308,639.734661 L1107.66812,639.734661 C1108.38571,639.734661 1108.9681,639.15226 1108.9681,638.43466 C1108.9681,637.71706 1108.38571,637.13466 1107.66812,637.13466 L1099.97312,637.13466 L1092.13858,629.299993 L1096.29418,629.299993 L1100.29465,633.29966 C1100.54858,633.553593 1100.88137,633.680127 1101.21417,633.680127 C1101.54696,633.680127 1101.87975,633.553593 1102.13368,633.29966 C1102.64154,632.791793 1102.64154,631.969327 1102.13368,631.46146 L1099.97052,629.299993 L1104.04638,629.299993 L1109.48636,634.740927 C1109.74029,634.99486 1110.07308,635.121394 1110.40588,635.121394 C1110.73867,635.121394 1111.07147,634.99486 1111.3254,634.740927 C1111.83325,634.23306 1111.83325,633.410593 1111.3254,632.902727 L1107.72359,629.299993 L1113.70002,629.299993 C1114.41761,629.299993 1115,628.717593 1115,627.999993 C1115,627.282393 1114.41761,626.699993 1113.70002,626.699993" id="COLD" style="mix-blend-mode: luminosity;"></path>
        </g>
    </g>
</svg>