<?xml version="1.0" encoding="UTF-8"?>
<svg width="18px" height="23px" viewBox="0 0 18 23" version="1.1" xmlns="http://www.w3.org/2000/svg" xmlns:xlink="http://www.w3.org/1999/xlink">
    <!-- Generator: sketchtool 41.2 (35397) - http://www.bohemiancoding.com/sketch -->
    <title>26EDFEDC-DDD1-49A5-BC19-E6D466A72EDF</title>
    <desc>Created with sketchtool.</desc>
    <defs></defs>
    <g id="Page-1" stroke="none" stroke-width="1" fill="none" fill-rule="evenodd">
        <g id="CASH-GAMES-LANDING" transform="translate(-1000.000000, -293.000000)" stroke="#FFFFFF" fill="#FFFFFF">
            <g id="HEADER" transform="translate(48.000000, 285.000000)">
                <path d="M962.904752,14.9603191 L962.904752,28.476192 C962.904752,29.3177679 962.22252,30 961.380944,30 C960.539368,30 959.857136,29.3177679 959.857136,28.476192 L959.857136,14.625832 L955.60019,18.8739947 C955.004491,19.4684638 954.03967,19.4674674 953.445201,18.8717691 C952.850732,18.2760708 952.851728,17.3112495 953.447426,16.7167804 L960.304562,9.87379324 C960.924723,9.25491241 961.93778,9.28520605 962.519852,9.94003748 L968.615084,16.7971733 C969.174197,17.426175 969.11754,18.3893319 968.488539,18.9484445 C967.859537,19.5075571 966.89638,19.4509008 966.337267,18.8218992 L962.904752,14.9603191 Z" id="DOWNARROW" transform="translate(961.000000, 19.714294) scale(1, -1) translate(-961.000000, -19.714294) "></path>
            </g>
        </g>
    </g>
</svg>