<?xml version="1.0" encoding="UTF-8"?>
<svg width="100px" height="100px" viewBox="0 0 100 100" version="1.1" xmlns="http://www.w3.org/2000/svg" xmlns:xlink="http://www.w3.org/1999/xlink">
    <!-- Generator: sketchtool 41.2 (35397) - http://www.bohemiancoding.com/sketch -->
    <title>E30A7391-0EFE-4DA1-B1A1-83755123C256</title>
    <desc>Created with sketchtool.</desc>
    <defs></defs>
    <g id="Page-1" stroke="none" stroke-width="1" fill="none" fill-rule="evenodd">
        <g id="CASH-GAMES-LANDING" transform="translate(-1307.000000, -894.000000)">
            <g id="FILTER" transform="translate(1307.000000, 894.000000)">
                <circle id="Oval-3" fill="#3DE689" cx="50" cy="50" r="50"></circle>
                <g id="Page-1" transform="translate(31.000000, 31.000000)">
                    <polygon id="Fill-1" fill="#F8F5F5" points="24 17 14 17 2 3 36 3"></polygon>
                    <polygon id="Fill-3" fill="#FFFFFF" points="24 32 14 38 14 17 24 17"></polygon>
                    <path d="M36.5,3 L1.5,3 C0.7,3 0,2.3 0,1.5 L0,1.5 C0,0.7 0.7,0 1.5,0 L36.5,0 C37.3,0 38,0.7 38,1.5 L38,1.5 C38,2.3 37.3,3 36.5,3 Z" id="Fill-4" fill="#FFFFFF"></path>
                </g>
            </g>
        </g>
    </g>
</svg>