<?xml version="1.0" encoding="UTF-8"?>
<svg width="43px" height="45px" viewBox="0 0 43 45" version="1.1" xmlns="http://www.w3.org/2000/svg" xmlns:xlink="http://www.w3.org/1999/xlink">
    <!-- Generator: sketchtool 41.2 (35397) - http://www.bohemiancoding.com/sketch -->
    <title>4400AA3E-C827-48A8-A0D3-8547E5163C56</title>
    <desc>Created with sketchtool.</desc>
    <defs>
        <linearGradient x1="3.26161879%" y1="100%" x2="91.6728704%" y2="10.1218616%" id="linearGradient-1">
            <stop stop-color="#FF599E" offset="0%"></stop>
            <stop stop-color="#FFAB68" offset="100%"></stop>
        </linearGradient>
        <path d="M0.5,18.8021425 C4.34338942,22.6323005 9.64513646,25 15.5,25 C21.3548635,25 26.6566106,22.6323005 30.5,18.8021425 L30.5,5.22568035 C29.5606463,5.50172908 28.5519129,5.43859265 27.53125,5 C25.8130356,4.26213898 25.5003311,2.47932351 25.6502242,0.521250001 L0.5,0.52125 L0.5,18.8021425 L0.5,18.8021425 Z" id="path-2"></path>
    </defs>
    <g id="Page-1" stroke="none" stroke-width="1" fill="none" fill-rule="evenodd">
        <g id="CASH-GAMES-LANDING" transform="translate(-1068.000000, -386.000000)">
            <g id="TABLE-VIEW" transform="translate(30.000000, 363.000000)">
                <g id="Group">
                    <g id="HOT" style="mix-blend-mode: luminosity;" transform="translate(1038.000000, 23.000000)">
                        <path d="M42.75,23.75 C42.75,21.17125 42.29125,18.70125 41.45,16.415 C40.875,23.15 37.28375,26.61125 33.53125,25 C30.015,23.49 32.385,17.60375 32.56,14.795 C32.855,10.03375 32.545,4.58375 23.89625,0.0525 C27.49,6.9275 24.3125,11.1975 20.97875,11.45875 C17.2825,11.74625 13.89625,8.28125 15.14625,2.65625 C11.09875,5.63875 10.98,10.65875 12.22875,13.90625 C13.53125,17.29125 12.1775,20.10375 9,20.41625 C5.451249,20.76625 3.47875,16.615 5.2975,10 C2.150001,13.70625 0.25,18.50625 0.25,23.75 C0.25,35.48625 9.76375,45 21.5,45 C33.23625,45 42.75,35.48625 42.75,23.75" id="Fill-1" fill="url(#linearGradient-1)"></path>
                        <g id="Group-5" transform="translate(6.000000, 20.000000)">
                            <mask id="mask-3" fill="white">
                                <use xlink:href="#path-2"></use>
                            </mask>
                            <g id="Clip-4"></g>
                            <path d="M30.5,17.5 C30.5,14.7675 29.77,12.205 28.49375,9.99875 C28.6775,13.85375 25.29125,15.365 23.46875,14.635 C20.8375,13.58125 21.5425,11.77125 20.865,8.02125 C20.1875,4.27125 17.58375,1.66625 13.72875,0.52125 C16.54125,8.4375 12.17,11.355 9.87875,11.87625 C7.53875,12.40875 5.1875,11.875 4.91875,6.8675 C2.189999,9.585 0.5,13.345 0.5,17.5 C0.5,25.7837498 7.21625,32.5 15.5,32.5 C23.78375,32.5 30.5,25.7837498 30.5,17.5" id="Fill-3" fill="#FFC1C0" mask="url(#mask-3)"></path>
                        </g>
                    </g>
                </g>
            </g>
        </g>
    </g>
</svg>