<?xml version="1.0" encoding="UTF-8"?>
<svg width="26px" height="31px" viewBox="0 0 26 31" version="1.1" xmlns="http://www.w3.org/2000/svg" xmlns:xlink="http://www.w3.org/1999/xlink">
    <!-- Generator: sketchtool 41.2 (35397) - http://www.bohemiancoding.com/sketch -->
    <title>4355F8A9-26CD-42F5-93D7-6BC27C281768</title>
    <desc>Created with sketchtool.</desc>
    <defs></defs>
    <g id="Page-1" stroke="none" stroke-width="1" fill="none" fill-rule="evenodd">
        <g id="CASH-GAMES-LANDING" transform="translate(-1104.000000, -60.000000)">
            <g id="TOP-PORTION">
                <g id="Utility" transform="translate(705.000000, 48.000000)">
                    <g id="Play-money-icon" transform="translate(399.000000, 12.000000)">
                        <path d="M20.6934118,3.73949609 C16.8851765,3.73949609 14.5724706,1.52269336 13.576,0.281361328 C13.2748824,-0.0937265625 12.7251176,-0.0937265625 12.424,0.281361328 C11.4275294,1.52269336 9.11488235,3.73949609 5.30658824,3.73949609 L1.056,3.73949609 C0.482352941,3.73949609 0.0174117647,4.21811914 0.0174117647,4.80851172 L0.0174117647,11.7572949 C0.0173529412,24.0512773 9.63411765,29.9309844 13,31 C16.3658824,29.9309844 25.9826471,24.0512168 25.9826471,11.7572949 L25.9826471,4.80851172 C25.9826471,4.21805859 25.5176471,3.73949609 24.9440588,3.73949609 L20.6934118,3.73949609 L20.6934118,3.73949609 Z" id="Shape" fill="#3FDF87"></path>
                        <path d="M12.9102353,7.80473438 C12.0942941,7.80473438 11.4085882,8.39010156 11.2287059,9.17430469 C9.09588235,9.70887305 7.80694118,11.2514863 7.80694118,13.3537344 C7.80694118,15.0667266 8.679,16.3908867 10.2403529,17.113998 C10.1658824,17.1055215 10.0904118,17.1011621 10.0144118,17.1011621 L9.91305882,17.1011621 C9.16647059,17.1011621 8.47611765,17.5193594 8.11141176,18.1925195 C7.74670588,18.8655586 7.76241176,19.6563008 8.15335294,20.3077852 C8.77582353,21.3453164 9.87158824,22.0528066 11.2867059,22.3467012 C11.5285882,23.0285195 12.1650588,23.516709 12.9101765,23.516709 C13.6632941,23.516709 14.3054118,23.018166 14.5412353,22.3247227 C16.8449412,21.8103164 18.193,20.2471172 18.193,18.0235332 C18.193,16.7778418 17.7659412,15.2407383 15.9482941,14.3436758 C16.5739412,14.2437129 17.1285882,13.8502188 17.4414118,13.2672129 C17.8036471,12.5922363 17.7837647,11.8029473 17.3882941,11.1558223 C16.7958235,10.1862246 15.8207647,9.50258984 14.593,9.18066211 C14.4156471,8.39325 13.7284706,7.80473438 12.9102353,7.80473438 L12.9102353,7.80473438 Z M11.2221176,17.5070992 C11.1891079,17.4831907 11.1559041,17.4597888 11.1221176,17.4371973 C11.1553215,17.4466188 11.1886225,17.4559391 11.2221176,17.4651581 L11.2221176,17.5070992 L11.2221176,17.5070992 Z" id="Shape" fill="#3FDF87"></path>
                        <path d="M13,2.76408594 C14.5282941,4.23483008 17.0511176,5.87758789 20.6934706,5.87758789 L23.9054118,5.87758789 L23.9054118,11.7572949 C23.9054118,16.5215469 22.3321765,20.6862031 19.2293529,24.135377 C16.9625882,26.6552168 14.4358824,28.1199063 13,28.7267676 C11.5640588,28.1199062 9.03741176,26.6552773 6.77064706,24.135377 C3.66782353,20.6862031 2.09458824,16.5215469 2.09458824,11.7572949 L2.09458824,5.87758789 L5.30652941,5.87758789 C8.94888235,5.87758789 11.4717059,4.23476953 13,2.76408594 L13,2.76408594 Z M13,0 C12.7872941,0 12.5745882,0.0937265625 12.4239412,0.281300781 C11.4274706,1.52263281 9.11482353,3.73943555 5.30652941,3.73943555 L1.05594118,3.73943555 C0.482352941,3.73943555 0.0173529412,4.21811914 0.0173529412,4.80845117 L0.0173529412,11.7572344 C0.0173529412,24.0511563 9.63411765,29.9309238 13,30.9999395 C16.3658824,29.9309238 25.9826471,24.0511563 25.9826471,11.7572344 L25.9826471,4.80845117 C25.9826471,4.21805859 25.5175882,3.73943555 24.9440588,3.73943555 L20.6934706,3.73943555 C16.8852353,3.73943555 14.5725294,1.52263281 13.5760588,0.281300781 C13.4254706,0.0937871094 13.2127059,0 13,0 L13,0 Z" id="Shape" fill="#3DE689"></path>
                        <path d="M13,29.2612148 C12.9330588,29.2612148 12.8660588,29.2476523 12.8027059,29.2210117 C11.9826471,28.8744414 9.09758824,27.5094121 6.39,24.4985371 C3.19505882,20.9474023 1.57529412,16.6603203 1.57529412,11.7572344 L1.57529412,5.87752734 C1.57529412,5.58205859 1.80752941,5.34301953 2.09458824,5.34301953 L5.30676471,5.34301953 C8.82170588,5.34301953 11.2377059,3.72799219 12.6455294,2.3734375 C12.8443529,2.18132227 13.1557059,2.18132227 13.3545294,2.3734375 C14.7623529,3.72799219 17.1782941,5.34301953 20.6932941,5.34301953 L23.9054706,5.34301953 C24.1925294,5.34301953 24.4247647,5.58205859 24.4247647,5.87752734 L24.4247647,11.7572344 C24.4247647,16.6603203 22.805,20.9474023 19.61,24.4985371 C16.9024118,27.5094121 14.0173529,28.8743809 13.1972941,29.2210117 C13.1338235,29.2476523 13.0669412,29.2612148 13,29.2612148 Z M2.61388235,6.4120957 L2.61388235,11.7572949 C2.61388235,16.3827129 4.14082353,20.4250039 7.15170588,23.7719746 C9.52964706,26.4158145 12.0349412,27.7125469 13,28.1463047 C13.9650588,27.7125469 16.4703529,26.4159355 18.8482941,23.7719746 C21.8591765,20.4249434 23.3861176,16.3826523 23.3861176,11.7572949 L23.3861176,6.4120957 L20.6932353,6.4120957 C17.1199412,6.4120957 14.5817647,4.88891797 13,3.48265625 C11.4182353,4.88891797 8.88,6.4120957 5.30676471,6.4120957 L2.61388235,6.4120957 L2.61388235,6.4120957 Z" id="Shape" fill="#31CA76"></path>
                        <path d="M17.1544706,18.0234727 C17.1544706,16.3485039 16.1945882,15.3219316 14.2748824,14.8896875 L13.5991176,14.7531543 L13.5991176,11.8742109 C14.1149412,11.985375 14.5220588,12.3000977 14.7251765,12.7195664 C14.8970588,13.0744922 15.2476471,13.299666 15.633,13.299666 C16.418,13.299666 16.9272353,12.4090215 16.5092353,11.7250234 C15.9636471,10.8321992 14.9410588,10.2335117 13.5990588,10.0800859 L13.5990588,9.582875 C13.5990588,9.19125781 13.2906471,8.87375 12.9101176,8.87375 C12.5296471,8.87375 12.2211765,9.19125781 12.2211765,9.582875 L12.2211765,10.0799043 C10.0913529,10.3185801 8.84541176,11.518377 8.84541176,13.3536738 C8.84541176,14.9591953 9.81276471,16.0320859 11.6200588,16.4643301 L12.2211765,16.610248 L12.2211765,19.6357754 C11.6124706,19.5192227 11.1494118,19.1981426 10.9208235,18.7470684 C10.7432353,18.396502 10.3983529,18.1701777 10.0142353,18.1701777 L9.91288235,18.1701777 C9.12735294,18.1701777 8.62405882,19.0581582 9.03682353,19.7460918 C9.59911765,20.6831758 10.7087059,21.2736895 12.2211176,21.4042891 L12.2211176,21.7386289 C12.2211176,22.1302461 12.5295882,22.4477539 12.9100588,22.4477539 C13.2905294,22.4477539 13.599,22.1303066 13.599,21.7386289 L13.599,21.3970234 C15.8730588,21.1559258 17.1544706,19.9478945 17.1544706,18.0234727 Z M11.0127647,13.1607715 C11.0127647,12.4870664 11.5071176,11.9773828 12.2212941,11.8629492 L12.2212941,14.4549609 C11.432,14.233541 11.0127647,13.7901563 11.0127647,13.1607715 Z M13.5990588,19.6633242 L13.5990588,16.8786523 C14.5755294,17.1047949 15.0322353,17.5524785 15.0322353,18.2705039 C15.0322353,19.0525273 14.5036471,19.565541 13.5990588,19.6633242 Z" id="Shape" fill="#FFF5C8"></path>
                        <path d="M17.1544706,18.0234727 C17.1544706,16.3485039 16.1945882,15.3219316 14.2748824,14.8896875 L13.5991176,14.7531543 L13.5991176,11.8742109 C14.1149412,11.985375 14.5220588,12.3000977 14.7251765,12.7195664 C14.8970588,13.0744922 15.2476471,13.299666 15.633,13.299666 C16.418,13.299666 16.9272353,12.4090215 16.5092353,11.7250234 C15.9636471,10.8321992 14.9410588,10.2335117 13.5990588,10.0800859 L13.5990588,9.582875 C13.5990588,9.19125781 13.2906471,8.87375 12.9101176,8.87375 C12.5296471,8.87375 12.2211765,9.19125781 12.2211765,9.582875 L12.2211765,10.0799043 C10.0913529,10.3185801 8.84541176,11.518377 8.84541176,13.3536738 C8.84541176,14.9591953 9.81276471,16.0320859 11.6200588,16.4643301 L12.2211765,16.610248 L12.2211765,19.6357754 C11.6124706,19.5192227 11.1494118,19.1981426 10.9208235,18.7470684 C10.7432353,18.396502 10.3983529,18.1701777 10.0142353,18.1701777 L9.91288235,18.1701777 C9.12735294,18.1701777 8.62405882,19.0581582 9.03682353,19.7460918 C9.59911765,20.6831758 10.7087059,21.2736895 12.2211176,21.4042891 L12.2211176,21.7386289 C12.2211176,22.1302461 12.5295882,22.4477539 12.9100588,22.4477539 C13.2905294,22.4477539 13.599,22.1303066 13.599,21.7386289 L13.599,21.3970234 C15.8730588,21.1559258 17.1544706,19.9478945 17.1544706,18.0234727 Z M11.0127647,13.1607715 C11.0127647,12.4870664 11.5071176,11.9773828 12.2212941,11.8629492 L12.2212941,14.4549609 C11.432,14.233541 11.0127647,13.7901563 11.0127647,13.1607715 Z M13.5990588,19.6633242 L13.5990588,16.8786523 C14.5755294,17.1047949 15.0322353,17.5524785 15.0322353,18.2705039 C15.0322353,19.0525273 14.5036471,19.565541 13.5990588,19.6633242 Z" id="Shape" fill="#31CA76"></path>
                    </g>
                </g>
            </g>
        </g>
    </g>
</svg>