<?xml version="1.0" encoding="UTF-8"?>
<svg width="29px" height="29px" viewBox="0 0 29 29" version="1.1" xmlns="http://www.w3.org/2000/svg" xmlns:xlink="http://www.w3.org/1999/xlink">
    <!-- Generator: sketchtool 41.2 (35397) - http://www.bohemiancoding.com/sketch -->
    <title>361F5180-0412-4DB6-9EEC-80EB7B25416D</title>
    <desc>Created with sketchtool.</desc>
    <defs></defs>
    <g id="Page-1" stroke="none" stroke-width="1" fill="none" fill-rule="evenodd">
        <g id="CASH-GAMES-LANDING" transform="translate(-725.000000, -58.000000)">
            <g id="TOP-PORTION">
                <g id="Utility" transform="translate(705.000000, 48.000000)">
                    <g id="real-money-icon" transform="translate(20.000000, 10.000000)">
                        <path d="M28.848373,12.423498 C28.812916,12.1791504 28.598418,11.9999961 28.3515215,11.9999961 L27.2573379,11.9999961 C26.9198164,10.2680391 26.2404688,8.65842578 25.2893027,7.24626172 L26.0614277,6.47413672 C26.2361641,6.29940039 26.2608594,6.02021875 26.1128008,5.82231641 C25.2797305,4.70921484 24.2907852,3.72026953 23.177627,2.88714258 C22.9798379,2.73908398 22.7005996,2.76383594 22.5258633,2.93857227 L21.7536816,3.71075391 C20.3416309,2.75953125 18.7320176,2.08018359 17.0000605,1.74271875 L17.0000605,0.648478516 C17.0000605,0.401525391 16.8209629,0.187027344 16.5765586,0.151626953 C15.8982305,0.0532421875 15.2055156,0 14.5,0 C13.7944844,0 13.1017695,0.0532421875 12.423498,0.151626953 C12.1791504,0.187083984 11.9999961,0.401582031 11.9999961,0.648478516 L11.9999961,1.74266211 C10.2680391,2.08018359 8.65842578,2.75947461 7.24631836,3.71069727 L6.47419336,2.93851563 C6.29945703,2.7637793 6.02027539,2.73902734 5.82237305,2.88708594 C4.70927148,3.72021289 3.72032617,4.7091582 2.88719922,5.82225977 C2.73914062,6.02016211 2.76389258,6.29934375 2.93862891,6.47408008 L3.71081055,7.24626172 C2.75947461,8.65836914 2.08018359,10.2680391 1.74266211,11.9999395 L0.648478516,11.9999395 C0.401525391,11.9999395 0.187027344,12.1790371 0.151626953,12.4234414 C0.0532988281,13.1017695 0,13.7944844 0,14.5 C0,15.2055156 0.0532988281,15.8982305 0.151626953,16.5764453 C0.187083984,16.820793 0.401582031,17.0000039 0.648478516,17.0000039 L1.74266211,17.0000039 C2.08018359,18.7319609 2.75947461,20.3415742 3.71069727,21.7536816 L2.93851563,22.5258633 C2.7637793,22.7005996 2.73902734,22.9797812 2.88708594,23.1776836 C3.72021289,24.2907852 4.70910156,25.2797305 5.82225977,26.1128008 C6.02016211,26.2608594 6.29928711,26.2361074 6.47408008,26.0613711 L7.24620508,25.2892461 C8.6583125,26.2404687 10.2679824,26.9198164 11.9998828,27.2572812 L11.9998828,28.3514648 C11.9998828,28.598418 12.1789805,28.812916 12.4233848,28.8483164 C13.1017695,28.9467012 13.7944844,29 14.5,29 C15.2055156,29 15.8982305,28.9467012 16.576502,28.848373 C16.8209063,28.812916 17.0000039,28.598418 17.0000039,28.3515215 L17.0000039,27.2573379 C18.7319609,26.9198164 20.3415742,26.2405254 21.7536816,25.2893027 L22.5258633,26.0614277 C22.7005996,26.2361641 22.9797812,26.260916 23.177627,26.1128574 C24.2908418,25.2797305 25.2797305,24.2908418 26.1128008,23.1777402 C26.260916,22.9798945 26.2362207,22.7006563 26.0614277,22.5259199 L25.2893027,21.7537949 C26.2405254,20.3416875 26.919873,18.7320742 27.2573379,17.0001172 L28.3515215,17.0001172 C28.5984746,17.0001172 28.8129727,16.8209063 28.848373,16.5765586 C28.9467012,15.8982305 29,15.2055156 29,14.5 C29,13.7944844 28.9467012,13.1017695 28.848373,12.423498 Z M14.5,24.5000156 C8.97714258,24.5000156 4.49998438,20.0228008 4.49998438,14.5 C4.49998438,8.97714258 8.97708594,4.49998437 14.5,4.49998437 C20.0229141,4.49998437 24.5000156,8.97714258 24.5000156,14.5 C24.5000156,20.0228008 20.0228574,24.5000156 14.5,24.5000156 Z" id="Shape" fill="#3DE689"></path>
                        <path d="M14.5,3.00002734 C8.14866016,3.00002734 3.00002734,8.14866016 3.00002734,14.5 C3.00002734,20.8512266 8.1487168,25.9999727 14.5,25.9999727 C20.8512832,25.9999727 25.9999727,20.8512266 25.9999727,14.5 C25.9999727,8.14866016 20.8513398,3.00002734 14.5,3.00002734 Z M14.5,24.5000156 C8.97714258,24.5000156 4.49998438,20.0228008 4.49998438,14.5 C4.49998438,8.97714258 8.97708594,4.49998437 14.5,4.49998437 C20.0229141,4.49998437 24.5000156,8.97714258 24.5000156,14.5 C24.5000156,20.0228008 20.0228574,24.5000156 14.5,24.5000156 Z" id="Shape" fill="#31CA76"></path>
                        <path d="M18.9103789,16.9369629 C18.9103789,15.2094805 17.8913574,14.1506406 15.8533711,13.7048223 L15.1360176,13.5640137 L15.1360176,10.5946855 C15.6836191,10.7093828 16.1158438,11.0339336 16.3314746,11.4665547 C16.5139141,11.832623 16.8861563,12.064793 17.2952148,12.064793 C18.1285684,12.064793 18.6692031,11.1461953 18.2254805,10.4407363 C17.6462734,9.51987305 16.5607559,8.90243359 15.1360176,8.74417969 L15.1360176,8.23129883 C15.1360176,7.82733789 14.8085781,7.50001172 14.4047305,7.50001172 C14.0008828,7.50001172 13.6734434,7.82745117 13.6734434,8.23129883 L13.6734434,8.74389648 C11.4124063,8.99005664 10.0897344,10.227541 10.0897344,12.1204707 C10.0897344,13.7763594 11.1166855,14.8828906 13.0352734,15.328709 L13.6733867,15.4792031 L13.6733867,18.5996484 C13.0271738,18.4795137 12.5355898,18.1482793 12.2929414,17.6830898 C12.1044414,17.3215527 11.7382598,17.0880801 11.3305039,17.0880801 L11.2229434,17.0880801 C10.3890234,17.0880801 9.85467578,18.0039023 10.2929043,18.7134395 C10.8898398,19.6799551 12.0678516,20.2889551 13.6733301,20.4237031 L13.6733301,20.7685879 C13.6733301,21.1724355 14.0007695,21.499875 14.4046172,21.499875 C14.8084648,21.499875 15.1359043,21.1724355 15.1359043,20.7685879 L15.1359043,20.4162832 C17.550041,20.1676875 18.9103789,18.9217637 18.9103789,16.9369629 Z M12.3903066,11.9215488 C12.3903066,11.2267383 12.9151387,10.7010566 13.6733301,10.5829609 L13.6733301,13.2563418 C12.8354453,13.0280234 12.3903066,12.570707 12.3903066,11.9215488 Z M15.1360176,18.628252 L15.1360176,15.7562324 C16.1726543,15.9894785 16.6574414,16.4511562 16.6574414,17.1917324 C16.6574414,17.9982949 16.0962461,18.527375 15.1360176,18.628252 Z" id="Shape" fill="#31CA76"></path>
                    </g>
                </g>
            </g>
        </g>
    </g>
</svg>