<?xml version="1.0" encoding="UTF-8"?>
<svg width="18px" height="23px" viewBox="0 0 18 23" version="1.1" xmlns="http://www.w3.org/2000/svg" xmlns:xlink="http://www.w3.org/1999/xlink">
    <!-- Generator: sketchtool 41.2 (35397) - http://www.bohemiancoding.com/sketch -->
    <title>38C43A64-DE33-4D50-8A1C-1082C9341879</title>
    <desc>Created with sketchtool.</desc>
    <defs></defs>
    <g id="Page-1" stroke="none" stroke-width="1" fill="none" fill-rule="evenodd">
        <g id="CASH-GAMES-LANDING" transform="translate(-575.000000, -293.000000)" stroke="#FFFFFF" fill="#FFFFFF">
            <g id="HEADER" transform="translate(48.000000, 285.000000)">
                <path d="M537.904752,14.5317316 L537.904752,28.0476046 C537.904752,28.8891805 537.22252,29.5714125 536.380944,29.5714125 C535.539368,29.5714125 534.857136,28.8891805 534.857136,28.0476046 L534.857136,14.1972445 L530.60019,18.4454072 C530.004491,19.0398763 529.03967,19.0388799 528.445201,18.4431816 C527.850732,17.8474834 527.851728,16.882662 528.447426,16.2881929 L535.304562,9.44520577 C535.924723,8.82632493 536.93778,8.85661857 537.519852,9.51145001 L543.615084,16.3685859 C544.174197,16.9975875 544.11754,17.9607445 543.488539,18.5198571 C542.859537,19.0789697 541.89638,19.0223134 541.337267,18.3933117 L537.904752,14.5317316 Z" id="UPARROW"></path>
            </g>
        </g>
    </g>
</svg>