<?xml version="1.0" encoding="UTF-8"?>
<svg width="84px" height="110px" viewBox="0 0 84 110" version="1.1" xmlns="http://www.w3.org/2000/svg" xmlns:xlink="http://www.w3.org/1999/xlink">
    <!-- Generator: sketchtool 41.2 (35397) - http://www.bohemiancoding.com/sketch -->
    <title>838113E8-34FE-40DB-9C5C-8661E39AE14D</title>
    <desc>Created with sketchtool.</desc>
    <defs></defs>
    <g id="Page-1" stroke="none" stroke-width="1" fill="none" fill-rule="evenodd">
        <g id="CASH-GAMES-LANDING" transform="translate(-28.000000, -26.000000)" fill="#FFFFFF">
            <g id="TOP-PORTION">
                <path d="M97.1883251,36.074435 C91.0308705,30.8039299 83.7873554,27.6305966 76.3249311,26.4859905 C62.4686079,24.3602531 47.8610928,29.2299905 38.0749513,40.6636067 C23.0183049,58.2549602 25.0727695,84.7206168 42.6641231,99.7775461 C48.8215776,105.047768 56.0648099,108.220819 63.5272342,109.365708 C77.3832746,111.491728 91.9913554,106.621425 101.777214,95.1875259 C116.83386,77.5964552 114.779113,51.1307986 97.1883251,36.074435 Z M105.314264,80.0881723 L92.5007291,75.6709602 C94.2265473,70.6357683 94.205618,65.1760511 92.5046887,60.1934653 L105.304648,55.7884148 C106.316325,58.7448188 106.962588,61.849142 107.210911,65.0484956 C107.613093,70.2267986 106.952123,75.3216673 105.314264,80.0881723 Z M106.03378,55.4303541 L106.03378,55.4280915 L106.03378,55.4303541 Z M98.1230725,43.3858289 L87.9217392,52.2474047 C87.1668705,51.3833642 86.3438402,50.5614653 85.4464261,49.7933036 C82.2032342,47.0176269 78.4294564,45.2694653 74.5187897,44.5066774 L77.091113,31.2870006 C83.4066685,32.5116471 89.3121231,35.3297481 94.2404059,39.5481319 C95.6375776,40.7439299 96.933214,42.0274047 98.1230725,43.3858289 Z M57.2023453,32.7828794 C59.0203655,32.1281319 60.8850523,31.620738 62.7768907,31.2590006 L65.3469513,44.5075259 C60.315719,45.4880915 55.565618,48.0855865 51.9428705,52.2403339 L41.7313554,43.3598087 C45.9126887,38.5619097 51.2502241,34.9281319 57.2023453,32.7828794 Z M34.5401635,55.7635259 L47.3514362,60.1804552 C45.625618,65.2156471 45.6465473,70.6747986 47.3471938,75.6576673 L34.5364867,80.0663946 C33.5290523,77.1133845 32.885618,74.0138693 32.6378604,70.8213036 C32.2356786,65.6384754 32.8986281,60.5359703 34.5401635,55.7635259 Z M54.4082847,43.3931824 C55.6578987,43.3931824 56.6709109,42.3801701 56.6709109,41.1305562 C56.6709109,39.8809422 55.6578987,38.8679299 54.4082847,38.8679299 C53.1586707,38.8679299 52.1456584,39.8809422 52.1456584,41.1305562 C52.1456584,42.3801701 53.1586707,43.3931824 54.4082847,43.3931824 Z M38.9619008,70.2290612 C40.2115148,70.2290612 41.2245271,69.2160489 41.2245271,67.966435 C41.2245271,66.716821 40.2115148,65.7038087 38.9619008,65.7038087 C37.7122869,65.7038087 36.6992746,66.716821 36.6992746,67.966435 C36.6992746,69.2160489 37.7122869,70.2290612 38.9619008,70.2290612 Z M100.889699,70.1467582 C102.139313,70.1467582 103.152325,69.1337459 103.152325,67.8841319 C103.152325,66.6345179 102.139313,65.6215057 100.889699,65.6215057 C99.6400848,65.6215057 98.6270725,66.6345179 98.6270725,67.8841319 C98.6270725,69.1337459 99.6400848,70.1467582 100.889699,70.1467582 Z M85.3726079,43.3516067 C86.6222219,43.3516067 87.6352342,42.3385944 87.6352342,41.0889804 C87.6352342,39.8393664 86.6222219,38.8263541 85.3726079,38.8263541 C84.1229939,38.8263541 83.1099816,39.8393664 83.1099816,41.0889804 C83.1099816,42.3385944 84.1229939,43.3516067 85.3726079,43.3516067 Z M64.4402037,75.0026484 C62.5402316,76.120279 61,75.2363497 61,73.0261656 L61,62.000132 C61,59.7909201 62.5840529,58.8410666 64.5327325,59.875735 L74.4672675,65.1505626 C76.4183418,66.1865024 76.4613802,67.931368 74.5597963,69.0499468 L64.4402037,75.0026484 Z M41.88,136 L41.88,129.064 L46.656,129.064 C49.584,129.064 51.336,126.976 51.336,124.528 C51.336,122.08 49.632,119.992 46.656,119.992 L41.112,119.992 L41.112,136 L41.88,136 Z M46.632,128.344 L41.88,128.344 L41.88,120.712 L46.632,120.712 C48.984,120.712 50.496,122.32 50.496,124.528 C50.496,126.736 48.984,128.344 46.632,128.344 Z M65.24,136 L65.24,135.28 L57.2,135.28 L57.2,119.992 L56.432,119.992 L56.432,136 L65.24,136 Z M83.056,136 L76.384,119.992 L75.472,119.992 L68.8,136 L69.688,136 L71.464,131.704 L80.392,131.704 L82.168,136 L83.056,136 Z M80.104,130.984 L71.752,130.984 L75.928,120.88 L80.104,130.984 Z M93.264,136 L93.264,129.064 L99.696,119.992 L98.712,119.992 L92.88,128.296 L87.048,119.992 L86.064,119.992 L92.496,129.064 L92.496,136 L93.264,136 Z M58.2884,101.434667 C59.0152,101.593333 59.7328,101.696 60.4136,101.696 C61.6464,101.696 62.9988,101.350667 64.1396,100.622667 C63.9464,100.641333 63.7256,100.641333 63.5416,100.641333 C61.9868,100.641333 60.386,100.137333 58.8036,99.1386667 C56.384,97.58 54.774,94.472 53.7896,91.98 C51.9036,92.6986667 50.3856,93.604 49.7232,94.024 C50.588,95.3493333 54.1208,100.464 58.2884,101.434667 Z M59.2544,98.42 C60.6896,99.344 62.134,99.792 63.5416,99.792 C64.526,99.792 65.354,99.5866667 66.0072,99.2693333 C65.9244,99.2693333 65.8416,99.288 65.768,99.288 C64.1488,99.288 61.7292,98.6906667 59.512,95.872 C57.8468,93.772 57.2672,90.6173333 57.1292,88.0506667 C55.5284,88.1626667 54.2404,88.424 53.5872,88.564 C53.9736,90.104 55.6388,96.124 59.2544,98.42 Z M65.7588,98.4573333 C66.0808,98.4573333 66.4028,98.4293333 66.7156,98.3733333 C63.9464,97.7013333 62.1432,95.2186667 61.3244,92.876 C60.4688,90.3466667 60.9104,87.304 61.582,84.8586667 C60.0272,84.42 58.6748,84.2426667 58.0124,84.1586667 C57.856,85.7453333 57.488,91.98 60.1376,95.3586667 C62.1524,97.9253333 64.3144,98.4573333 65.7588,98.4573333 Z M67.562,97.664 C65.5472,96.544 63.8636,94.1173333 63.8636,90.4213333 C63.8636,87.6773333 65.216,84.9986667 66.6236,82.9733333 C65.3908,82.152 64.3144,81.5733333 63.7256,81.2933333 C63.0816,82.7493333 60.6988,88.508 62.0972,92.5866667 C63.4772,96.5813333 66.136,97.4866667 67.562,97.664 Z M81.2148,99.1386667 C79.6324,100.137333 78.0316,100.641333 76.4676,100.641333 C76.2744,100.641333 76.072,100.641333 75.888,100.622667 C77.0196,101.350667 78.372,101.696 79.5956,101.696 C80.2764,101.696 80.994,101.593333 81.7392,101.434667 C85.8792,100.464 89.4212,95.3493333 90.286,94.024 C89.642,93.604 88.1056,92.6986667 86.2196,91.98 C85.2536,94.472 83.616,97.5893333 81.2148,99.1386667 Z M74.2688,99.2973333 C74.1676,99.2973333 74.0848,99.2786667 74.0112,99.2786667 C74.6736,99.5866667 75.4832,99.8013333 76.4768,99.8013333 C77.8752,99.8013333 79.3472,99.3533333 80.7732,98.4293333 C84.3796,96.1333333 86.054,90.104 86.4404,88.564 C85.7964,88.424 84.49,88.1626667 82.9076,88.0506667 C82.742,90.6266667 82.1716,93.7813333 80.5064,95.8813333 C78.2892,98.7 75.8972,99.2973333 74.2688,99.2973333 Z M78.6848,92.876 C77.866,95.2186667 76.072,97.7013333 73.2844,98.3733333 C73.6064,98.42 73.9192,98.4573333 74.2596,98.4573333 C75.6856,98.4573333 77.8476,97.9253333 79.8532,95.3586667 C82.5028,91.98 82.144,85.7453333 81.9968,84.1586667 C81.3252,84.2426667 79.9636,84.42 78.4088,84.8586667 C79.0988,87.304 79.5496,90.3466667 78.6848,92.876 Z M72.1804,97.7013333 C73.5144,97.5893333 76.44,96.8333333 77.9028,92.596 C79.3012,88.5173333 76.9368,82.7493333 76.2744,81.3026667 C75.6856,81.5826667 74.508,82.1986667 73.2108,83.104 C74.4988,84.9986667 75.934,87.7333333 75.934,90.4213333 C75.934,94.1453333 74.2228,96.5813333 72.1804,97.7013333 Z M69.6964,97.5333333 C69.724,97.5333333 69.7516,97.552 69.8068,97.5706667 C69.816,97.5706667 69.8436,97.552 69.8896,97.552 L69.8988,97.552 L69.9356,97.552 C69.9632,97.552 70,97.5706667 70.0092,97.5706667 C70.0552,97.552 70.092,97.5333333 70.1196,97.5333333 C71.84,97.272 75.1152,95.48 75.1152,90.4213333 C75.1152,86.1 70.9844,81.452 69.8988,80.304 C68.7396,81.4986667 64.7008,85.904 64.7008,90.4213333 C64.6916,92.624 65.7404,96.9733333 69.6964,97.5333333 Z" id="Yoga-play"></path>
            </g>
        </g>
    </g>
</svg>