<?xml version="1.0" encoding="UTF-8"?>
<svg width="46px" height="46px" viewBox="0 0 46 46" version="1.1" xmlns="http://www.w3.org/2000/svg" xmlns:xlink="http://www.w3.org/1999/xlink">
    <!-- Generator: sketchtool 41.2 (35397) - http://www.bohemiancoding.com/sketch -->
    <title>09E1EA51-9399-4A57-A5AD-97048BE7949E</title>
    <desc>Created with sketchtool.</desc>
    <defs></defs>
    <g id="Page-1" stroke="none" stroke-width="1" fill="none" fill-rule="evenodd">
        <g id="LOGIN" transform="translate(-47.000000, -423.000000)" fill="#FFFFFF">
            <g id="BG">
                <g id="Group-2">
                    <g id="LHS">
                        <path d="M87.1851852,423 L52.0231481,423 C49.2478588,423 47,425.262361 47,428.055556 L47,463.444444 C47,466.237638 49.2478588,468.5 52.0231481,468.5 L87.1851852,468.5 C89.9604745,468.5 92.2083333,466.237638 92.2083333,463.444444 L92.2083333,428.055556 C92.2083333,425.262361 89.9604745,423 87.1851852,423 Z M62.5,455.511712 C62.5,456.941184 61.3533492,458.1 59.9166667,458.1 L59.9166667,458.1 C58.4899311,458.1 57.3333333,456.933822 57.3333333,455.511712 L57.3333333,442.488288 C57.3333333,441.058816 58.4799841,439.9 59.9166667,439.9 L59.9166667,439.9 C61.3434023,439.9 62.5,441.066178 62.5,442.488288 L62.5,455.511712 Z M72.8333333,456.811966 C72.8333333,458.241298 71.6866825,459.4 70.25,459.4 L70.25,459.4 C68.8232644,459.4 67.6666667,458.249265 67.6666667,456.811966 L67.6666667,435.988034 C67.6666667,434.558702 68.8133175,433.4 70.25,433.4 L70.25,433.4 C71.6767356,433.4 72.8333333,434.550735 72.8333333,435.988034 L72.8333333,456.811966 Z M83.1666667,455.515851 C83.1666667,456.943037 82.0200159,458.1 80.5833333,458.1 L80.5833333,458.1 C79.1565977,458.1 78,456.947282 78,455.515851 L78,450.284149 C78,448.856963 79.1466508,447.7 80.5833333,447.7 L80.5833333,447.7 C82.0100689,447.7 83.1666667,448.852718 83.1666667,450.284149 L83.1666667,455.515851 Z" id="analytics"></path>
                    </g>
                </g>
            </g>
        </g>
    </g>
</svg>