<?xml version="1.0" encoding="UTF-8"?>
<svg width="163px" height="163px" viewBox="0 0 163 163" version="1.1" xmlns="http://www.w3.org/2000/svg" xmlns:xlink="http://www.w3.org/1999/xlink">
    <!-- Generator: sketchtool 41.2 (35397) - http://www.bohemiancoding.com/sketch -->
    <title>53CB4307-EBDC-46D1-A804-87156DC3554C</title>
    <desc>Created with sketchtool.</desc>
    <defs></defs>
    <g id="Page-1" stroke="none" stroke-width="1" fill="none" fill-rule="evenodd">
        <g id="LOGIN" transform="translate(-201.000000, -508.000000)">
            <g id="BG">
                <g id="Group-2">
                    <g id="cashgame" transform="translate(169.000000, 459.000000)">
                        <g id="cash-games" style="mix-blend-mode: luminosity;" transform="translate(32.000000, 49.000000)">
                            <g id="Layer_1">
                                <ellipse id="Oval" fill="#F9D710" cx="44.3302428" cy="6.6061674" rx="44.0423841" ry="6.6061674"></ellipse>
                                <path d="M44.3302428,0 C68.798234,0 88.3726269,2.8722467 88.3726269,6.6061674 C88.3726269,10.3400881 68.5103753,13.2123348 44.3302428,13.2123348" id="Shape" fill="#FCB80D"></path>
                                <g id="Group" transform="translate(0.000000, 6.462555)" fill="#F99410">
                                    <path d="M88.3726269,0.143612335 L88.3726269,0.143612335 C87.7969095,3.59030837 68.2225166,6.46255507 44.3302428,6.46255507 C20.1501104,6.74977974 0.863576159,3.87753304 0.28785872,0.143612335 L0.28785872,0.143612335 L0.28785872,16.5154185 C0.28785872,16.5154185 0.28785872,16.5154185 0.28785872,16.8026432 C0.28785872,16.8026432 0.28785872,16.8026432 0.28785872,17.0898678 L0.28785872,17.0898678 L0.28785872,17.0898678 C1.15143488,20.5365639 20.4379691,23.4088106 44.3302428,23.4088106 C68.2225166,23.4088106 87.5090508,20.5365639 88.3726269,17.0898678 L88.3726269,17.0898678 L88.3726269,17.0898678 C88.3726269,17.0898678 88.3726269,17.0898678 88.3726269,16.8026432 C88.3726269,16.8026432 88.3726269,16.8026432 88.3726269,16.5154185 L88.3726269,0.143612335 L88.3726269,0.143612335 Z" id="Shape"></path>
                                </g>
                                <path d="M44.3302428,29.584141 C68.2225166,29.584141 87.5090508,26.7118943 88.3726269,23.2651982 L88.3726269,23.2651982 L88.3726269,23.2651982 C88.3726269,23.2651982 88.3726269,23.2651982 88.3726269,22.9779736 C88.3726269,22.9779736 88.3726269,22.9779736 88.3726269,22.6907489 L88.3726269,6.6061674 L88.3726269,6.6061674 C87.7969095,10.0528634 68.2225166,12.9251101 44.3302428,12.9251101" id="Shape" fill="#ED8406"></path>
                                <g id="Group" transform="translate(7.196468, 10.052863)" fill="#FCB80D">
                                    <path d="M0.28785872,16.6590308 C1.4392936,16.9462555 2.59072848,17.2334802 4.03002208,17.5207048 L4.03002208,0.861674009 C2.59072848,0.574449339 1.4392936,0.28722467 0.28785872,0 L0.28785872,16.6590308 L0.28785872,16.6590308 Z" id="Shape"></path>
                                    <path d="M12.0900662,18.3823789 C13.2415011,18.3823789 14.392936,18.6696035 15.8322296,18.6696035 L15.8322296,2.29779736 C14.6807947,2.29779736 13.2415011,2.01057269 12.0900662,2.01057269 L12.0900662,18.3823789 Z" id="Shape"></path>
                                    <path d="M23.604415,19.2440529 C24.7558499,19.2440529 25.9072848,19.2440529 27.3465784,19.5312775 L27.3465784,2.8722467 C26.1951435,2.8722467 24.7558499,2.8722467 23.604415,2.58502203 L23.604415,19.2440529 Z" id="Shape"></path>
                                    <path d="M35.1187638,19.5312775 L36.8459161,19.5312775 L38.5730684,19.5312775 L38.5730684,3.15947137 L36.8459161,3.15947137 L35.1187638,3.15947137 L35.1187638,19.5312775 Z" id="Shape"></path>
                                </g>
                                <g id="Group" transform="translate(53.973510, 10.052863)" fill="#F99410">
                                    <path d="M0.14392936,19.5312775 C1.29536424,19.5312775 2.73465784,19.5312775 3.88609272,19.2440529 L3.88609272,2.58502203 C2.73465784,2.58502203 1.29536424,2.58502203 0.14392936,2.8722467 L0.14392936,19.5312775 Z" id="Shape"></path>
                                    <path d="M11.6582781,18.9568282 C12.809713,18.9568282 14.2490066,18.6696035 15.4004415,18.6696035 L15.4004415,1.72334802 C14.2490066,1.72334802 13.0975717,2.01057269 11.6582781,2.01057269 L11.6582781,18.9568282 Z" id="Shape"></path>
                                    <path d="M23.4604857,17.5207048 C24.8997792,17.2334802 26.0512141,16.9462555 27.202649,16.6590308 L27.202649,0 C26.0512141,0.28722467 24.8997792,0.574449339 23.4604857,0.861674009 L23.4604857,17.5207048 Z" id="Shape"></path>
                                </g>
                                <ellipse id="Oval" fill="#F9D710" cx="44.3302428" cy="39.6370044" rx="44.0423841" ry="6.6061674"></ellipse>
                                <path d="M44.3302428,33.030837 C68.798234,33.030837 88.3726269,35.9030837 88.3726269,39.6370044 C88.3726269,43.3709251 68.5103753,46.2431718 44.3302428,46.2431718" id="Shape" fill="#FCB80D"></path>
                                <g id="Group" transform="translate(0.000000, 39.852423)" fill="#F99410">
                                    <path d="M88.3726269,0.0718061674 L88.3726269,0.0718061674 C87.7969095,3.5185022 68.2225166,6.3907489 44.3302428,6.3907489 C20.4379691,6.3907489 0.863576159,3.5185022 0.28785872,0.0718061674 L0.28785872,0.0718061674 L0.28785872,16.4436123 C0.28785872,16.4436123 0.28785872,16.4436123 0.28785872,16.730837 C0.28785872,16.730837 0.28785872,16.730837 0.28785872,17.0180617 L0.28785872,17.0180617 L0.28785872,17.0180617 C1.15143488,20.4647577 20.4379691,23.3370044 44.3302428,23.3370044 C68.2225166,23.3370044 87.5090508,20.4647577 88.3726269,17.0180617 L88.3726269,17.0180617 L88.3726269,17.0180617 C88.3726269,17.0180617 88.3726269,17.0180617 88.3726269,16.730837 C88.3726269,16.730837 88.3726269,16.730837 88.3726269,16.4436123 L88.3726269,0.0718061674 Z" id="Shape"></path>
                                    <path id="Shape"></path>
                                </g>
                                <path d="M44.3302428,62.9022026 C68.2225166,62.9022026 87.5090508,60.0299559 88.3726269,56.5832599 L88.3726269,56.5832599 L88.3726269,56.5832599 C88.3726269,56.5832599 88.3726269,56.5832599 88.3726269,56.2960352 C88.3726269,56.2960352 88.3726269,56.2960352 88.3726269,56.0088106 L88.3726269,39.6370044 L88.3726269,39.6370044 C87.7969095,43.0837004 68.2225166,45.9559471 44.3302428,45.9559471" id="Shape" fill="#ED8406"></path>
                                <g id="Group" transform="translate(7.196468, 43.083700)" fill="#FCB80D">
                                    <path d="M0.28785872,16.9462555 C1.4392936,17.2334802 2.59072848,17.5207048 4.03002208,17.8079295 L4.03002208,1.14889868 C2.59072848,0.861674009 1.4392936,0.574449339 0.28785872,0.28722467 L0.28785872,16.9462555 L0.28785872,16.9462555 Z" id="Shape"></path>
                                    <path d="M12.0900662,18.6696035 C13.2415011,18.6696035 14.392936,18.9568282 15.8322296,18.9568282 L15.8322296,2.29779736 C14.6807947,2.29779736 13.2415011,2.01057269 12.0900662,2.01057269 L12.0900662,18.6696035 Z" id="Shape"></path>
                                    <path d="M23.604415,19.5312775 C24.7558499,19.5312775 25.9072848,19.5312775 27.3465784,19.8185022 L27.3465784,3.15947137 C26.1951435,3.15947137 24.7558499,3.15947137 23.604415,2.8722467 L23.604415,19.5312775 Z" id="Shape"></path>
                                    <path d="M35.1187638,19.8185022 L36.8459161,19.8185022 L38.5730684,19.8185022 L38.5730684,3.15947137 L36.8459161,3.15947137 L35.1187638,3.15947137 L35.1187638,19.8185022 Z" id="Shape"></path>
                                </g>
                                <g id="Group" transform="translate(53.973510, 43.083700)" fill="#F99410">
                                    <path d="M0.14392936,19.8185022 C1.29536424,19.8185022 2.73465784,19.8185022 3.88609272,19.5312775 L3.88609272,2.8722467 C2.73465784,2.8722467 1.29536424,2.8722467 0.14392936,3.15947137 L0.14392936,19.8185022 Z" id="Shape"></path>
                                    <path d="M11.6582781,18.9568282 C12.809713,18.9568282 14.2490066,18.6696035 15.4004415,18.6696035 L15.4004415,2.01057269 C14.2490066,2.01057269 13.0975717,2.29779736 11.6582781,2.29779736 L11.6582781,18.9568282 Z" id="Shape"></path>
                                    <path d="M23.4604857,17.5207048 C24.8997792,17.2334802 26.0512141,16.9462555 27.202649,16.6590308 L27.202649,0 C26.0512141,0.28722467 24.8997792,0.574449339 23.4604857,0.861674009 L23.4604857,17.5207048 Z" id="Shape"></path>
                                </g>
                                <ellipse id="Oval" fill="#F9D710" cx="44.3302428" cy="72.9550661" rx="44.0423841" ry="6.6061674"></ellipse>
                                <path d="M44.3302428,66.3488987 C68.798234,66.3488987 88.3726269,69.2211454 88.3726269,72.9550661 C88.3726269,76.6889868 68.5103753,79.5612335 44.3302428,79.5612335" id="Shape" fill="#FCB80D"></path>
                                <g id="Group" transform="translate(0.000000, 73.242291)" fill="#F99410">
                                    <path d="M88.3726269,0 L88.3726269,0 C87.7969095,3.44669604 68.2225166,6.31894273 44.3302428,6.31894273 C20.4379691,6.31894273 0.863576159,3.44669604 0.28785872,0 L0.28785872,0 L0.28785872,16.3718062 C0.28785872,16.3718062 0.28785872,16.3718062 0.28785872,16.6590308 C0.28785872,16.6590308 0.28785872,16.6590308 0.28785872,16.9462555 L0.28785872,16.9462555 L0.28785872,16.9462555 C1.15143488,20.3929515 20.4379691,23.2651982 44.3302428,23.2651982 C68.2225166,23.2651982 87.5090508,20.3929515 88.3726269,16.9462555 L88.3726269,16.9462555 L88.3726269,16.9462555 C88.3726269,16.9462555 88.3726269,16.9462555 88.3726269,16.6590308 C88.3726269,16.6590308 88.3726269,16.6590308 88.3726269,16.3718062 L88.3726269,0 L88.3726269,0 Z" id="Shape"></path>
                                </g>
                                <path d="M44.3302428,96.2202643 C68.2225166,96.2202643 87.5090508,93.3480176 88.3726269,89.9013216 L88.3726269,89.9013216 L88.3726269,89.9013216 C88.3726269,89.9013216 88.3726269,89.9013216 88.3726269,89.6140969 C88.3726269,89.6140969 88.3726269,89.6140969 88.3726269,89.3268722 L88.3726269,72.9550661 L88.3726269,72.9550661 C87.7969095,76.4017621 68.2225166,79.2740088 44.3302428,79.2740088" id="Shape" fill="#ED8406"></path>
                                <g id="Group" transform="translate(7.196468, 76.473568)" fill="#FCB80D">
                                    <path d="M0.28785872,16.8744493 C1.4392936,17.161674 2.59072848,17.4488987 4.03002208,17.7361233 L4.03002208,1.07709251 C2.59072848,0.789867841 1.4392936,0.502643172 0.28785872,0.215418502 L0.28785872,16.8744493 L0.28785872,16.8744493 Z" id="Shape"></path>
                                    <path d="M12.0900662,18.5977974 C13.2415011,18.5977974 14.392936,18.885022 15.8322296,18.885022 L15.8322296,2.22599119 C14.6807947,2.22599119 13.2415011,1.93876652 12.0900662,1.93876652 L12.0900662,18.5977974 Z" id="Shape"></path>
                                    <path d="M23.604415,19.4594714 C24.7558499,19.4594714 25.9072848,19.4594714 27.3465784,19.746696 L27.3465784,3.0876652 C26.1951435,3.0876652 24.7558499,3.0876652 23.604415,2.80044053 L23.604415,19.4594714 Z" id="Shape"></path>
                                    <path d="M35.1187638,19.746696 L36.8459161,19.746696 L38.5730684,19.746696 L38.5730684,3.0876652 L36.8459161,3.0876652 L35.1187638,3.0876652 L35.1187638,19.746696 Z" id="Shape"></path>
                                </g>
                                <g id="Group" transform="translate(53.973510, 76.114537)" fill="#F99410">
                                    <path d="M0.14392936,19.8185022 C1.29536424,19.8185022 2.73465784,19.8185022 3.88609272,19.5312775 L3.88609272,2.8722467 C2.73465784,2.8722467 1.29536424,2.8722467 0.14392936,3.15947137 L0.14392936,19.8185022 Z" id="Shape"></path>
                                    <path d="M11.6582781,19.2440529 C12.809713,19.2440529 14.2490066,18.9568282 15.4004415,18.9568282 L15.4004415,2.29779736 C14.2490066,2.29779736 13.0975717,2.58502203 11.6582781,2.58502203 L11.6582781,19.2440529 Z" id="Shape"></path>
                                    <path d="M23.4604857,17.8079295 C24.8997792,17.5207048 26.0512141,17.2334802 27.202649,16.9462555 L27.202649,0.28722467 C26.0512141,0.574449339 24.8997792,0.861674009 23.4604857,1.14889868 L23.4604857,17.8079295 Z" id="Shape"></path>
                                </g>
                                <ellipse id="Oval" fill="#F9D710" cx="44.3302428" cy="106.273128" rx="44.0423841" ry="6.6061674"></ellipse>
                                <path d="M44.3302428,99.6669604 C68.798234,99.6669604 88.3726269,102.539207 88.3726269,106.273128 C88.3726269,110.007048 68.5103753,112.879295 44.3302428,112.879295" id="Shape" fill="#FCB80D"></path>
                                <g id="Group" transform="translate(0.000000, 106.273128)" fill="#F99410">
                                    <path d="M88.3726269,0 L88.3726269,0 C87.7969095,3.44669604 68.2225166,6.31894273 44.3302428,6.31894273 C20.1501104,6.6061674 0.863576159,3.7339207 0.28785872,0 L0.28785872,0 L0.28785872,16.3718062 C0.28785872,16.3718062 0.28785872,16.3718062 0.28785872,16.6590308 C0.28785872,16.6590308 0.28785872,16.6590308 0.28785872,16.9462555 L0.28785872,16.9462555 L0.28785872,16.9462555 C1.15143488,20.3929515 20.4379691,23.2651982 44.3302428,23.2651982 C68.2225166,23.2651982 87.5090508,20.3929515 88.3726269,16.9462555 L88.3726269,16.9462555 L88.3726269,16.9462555 C88.3726269,16.9462555 88.3726269,16.9462555 88.3726269,16.6590308 C88.3726269,16.6590308 88.3726269,16.6590308 88.3726269,16.3718062 L88.3726269,0 L88.3726269,0 Z" id="Shape"></path>
                                </g>
                                <path d="M44.3302428,129.538326 C68.2225166,129.538326 87.5090508,126.666079 88.3726269,123.219383 L88.3726269,123.219383 L88.3726269,123.219383 C88.3726269,123.219383 88.3726269,123.219383 88.3726269,122.932159 C88.3726269,122.932159 88.3726269,122.932159 88.3726269,122.644934 L88.3726269,106.273128 L88.3726269,106.273128 C87.7969095,109.719824 68.2225166,112.59207 44.3302428,112.59207" id="Shape" fill="#ED8406"></path>
                                <g id="Group" transform="translate(7.196468, 109.863436)" fill="#FCB80D">
                                    <path d="M0.28785872,16.5154185 C1.4392936,16.8026432 2.59072848,17.0898678 4.03002208,17.3770925 L4.03002208,0.718061674 C2.59072848,0.430837004 1.4392936,0.143612335 0.28785872,0.143612335 L0.28785872,16.5154185 L0.28785872,16.5154185 Z" id="Shape"></path>
                                    <path d="M12.0900662,18.5259912 C13.2415011,18.5259912 14.392936,18.8132159 15.8322296,18.8132159 L15.8322296,2.15418502 C14.6807947,2.15418502 13.2415011,1.86696035 12.0900662,1.86696035 L12.0900662,18.5259912 Z" id="Shape"></path>
                                    <path d="M23.604415,19.3876652 C24.7558499,19.3876652 25.9072848,19.3876652 27.3465784,19.6748899 L27.3465784,3.01585903 C26.1951435,3.01585903 24.7558499,3.01585903 23.604415,2.72863436 L23.604415,19.3876652 Z" id="Shape"></path>
                                    <path d="M35.1187638,19.6748899 L36.8459161,19.6748899 L38.5730684,19.6748899 L38.5730684,3.01585903 L36.8459161,3.01585903 L35.1187638,3.01585903 L35.1187638,19.6748899 Z" id="Shape"></path>
                                </g>
                                <g id="Group" transform="translate(53.973510, 109.504405)" fill="#F99410">
                                    <path d="M0.14392936,19.746696 C1.29536424,19.746696 2.73465784,19.746696 3.88609272,19.4594714 L3.88609272,2.80044053 C2.73465784,2.80044053 1.29536424,2.80044053 0.14392936,3.0876652 L0.14392936,19.746696 Z" id="Shape"></path>
                                    <path d="M11.6582781,19.1722467 C12.809713,19.1722467 14.2490066,18.885022 15.4004415,18.885022 L15.4004415,2.22599119 C14.2490066,2.22599119 13.0975717,2.51321586 11.6582781,2.51321586 L11.6582781,19.1722467 Z" id="Shape"></path>
                                    <path d="M23.4604857,17.7361233 C24.8997792,17.4488987 26.0512141,17.161674 27.202649,16.8744493 L27.202649,0.215418502 C26.0512141,0.502643172 24.8997792,0.789867841 23.4604857,0.789867841 L23.4604857,17.7361233 Z" id="Shape"></path>
                                </g>
                                <ellipse id="Oval" fill="#F9D710" cx="44.3302428" cy="139.591189" rx="44.0423841" ry="6.6061674"></ellipse>
                                <path d="M44.3302428,132.985022 C68.798234,132.985022 88.3726269,135.857269 88.3726269,139.591189 C88.3726269,143.32511 68.5103753,146.197357 44.3302428,146.197357" id="Shape" fill="#FCB80D"></path>
                                <g id="Group" transform="translate(0.000000, 139.303965)" fill="#F99410">
                                    <path d="M88.3726269,0.28722467 L88.3726269,0.28722467 C87.7969095,3.7339207 68.2225166,6.6061674 44.3302428,6.6061674 C20.4379691,6.6061674 0.863576159,3.7339207 0.28785872,0.28722467 L0.28785872,0.28722467 L0.28785872,16.6590308 C0.28785872,16.6590308 0.28785872,16.6590308 0.28785872,16.9462555 C0.28785872,16.9462555 0.28785872,16.9462555 0.28785872,17.2334802 L0.28785872,17.2334802 L0.28785872,17.2334802 C1.15143488,20.6801762 20.4379691,23.5524229 44.3302428,23.5524229 C68.2225166,23.5524229 87.5090508,20.6801762 88.3726269,17.2334802 L88.3726269,17.2334802 L88.3726269,17.2334802 C88.3726269,17.2334802 88.3726269,17.2334802 88.3726269,16.9462555 C88.3726269,16.9462555 88.3726269,16.9462555 88.3726269,16.6590308 L88.3726269,0.28722467 Z" id="Shape"></path>
                                    <path id="Shape"></path>
                                </g>
                                <path d="M44.3302428,162.569163 C68.2225166,162.569163 87.5090508,159.696916 88.3726269,156.25022 L88.3726269,156.25022 L88.3726269,156.25022 C88.3726269,156.25022 88.3726269,156.25022 88.3726269,155.962996 C88.3726269,155.962996 88.3726269,155.962996 88.3726269,155.675771 L88.3726269,139.303965 L88.3726269,139.303965 C87.7969095,142.750661 68.2225166,145.622907 44.3302428,145.622907" id="Shape" fill="#ED8406"></path>
                                <g id="Group" transform="translate(7.196468, 143.253304)" fill="#FCB80D">
                                    <path d="M0.28785872,16.4436123 C1.4392936,16.730837 2.59072848,17.0180617 4.03002208,17.3052863 L4.03002208,0.646255507 C2.59072848,0.359030837 1.4392936,0.0718061674 0.28785872,0.0718061674 L0.28785872,16.4436123 L0.28785872,16.4436123 Z" id="Shape"></path>
                                    <path d="M12.0900662,18.1669604 C13.2415011,18.1669604 14.392936,18.454185 15.8322296,18.454185 L15.8322296,1.79515419 C14.6807947,1.79515419 13.2415011,1.50792952 12.0900662,1.50792952 L12.0900662,18.1669604 Z" id="Shape"></path>
                                    <path d="M23.604415,19.0286344 C24.7558499,19.0286344 25.9072848,19.0286344 27.3465784,19.315859 L27.3465784,2.65682819 C26.1951435,2.65682819 24.7558499,2.65682819 23.604415,2.36960352 L23.604415,19.0286344 Z" id="Shape"></path>
                                    <path d="M35.1187638,19.315859 L36.8459161,19.315859 L38.5730684,19.315859 L38.5730684,2.65682819 L36.8459161,2.65682819 L35.1187638,2.65682819 L35.1187638,19.315859 Z" id="Shape"></path>
                                </g>
                                <g id="Group" transform="translate(53.973510, 142.894273)" fill="#F99410">
                                    <path d="M0.14392936,19.6748899 C1.29536424,19.6748899 2.73465784,19.6748899 3.88609272,19.3876652 L3.88609272,2.72863436 C2.73465784,2.72863436 1.29536424,2.72863436 0.14392936,3.01585903 L0.14392936,19.6748899 Z" id="Shape"></path>
                                    <path d="M11.6582781,18.8132159 C12.809713,18.8132159 14.2490066,18.5259912 15.4004415,18.5259912 L15.4004415,1.86696035 C14.2490066,1.86696035 13.0975717,2.15418502 11.6582781,2.15418502 L11.6582781,18.8132159 Z" id="Shape"></path>
                                    <path d="M23.4604857,17.6643172 C24.8997792,17.3770925 26.0512141,17.0898678 27.202649,16.8026432 L27.202649,0.143612335 C26.0512141,0.430837004 24.8997792,0.718061674 23.4604857,0.718061674 L23.4604857,17.6643172 Z" id="Shape"></path>
                                </g>
                                <rect id="Rectangle-path" fill="#37C714" x="97.8719647" y="28.722467" width="65.0560706" height="108.570925"></rect>
                                <polyline id="Shape" fill="#36C80D" points="97.8719647 28.722467 162.640177 28.722467 162.640177 137.293392"></polyline>
                                <rect id="Rectangle-path" fill="#3AA208" x="108.522737" y="39.0625551" width="43.7545254" height="87.6035242"></rect>
                                <polyline id="Shape" fill="#3DB300" points="108.522737 39.0625551 152.277263 39.0625551 152.277263 126.953304"></polyline>
                                <ellipse id="Oval" fill="#FFFFFF" cx="130.4" cy="83.0079295" rx="16.407947" ry="15.2229075"></ellipse>
                                <path d="M130.4,67.785022 C139.611479,67.785022 146.807947,74.6784141 146.807947,83.0079295 C146.807947,91.3374449 139.32362,98.230837 130.4,98.230837" id="Shape" fill="#E5E5E5"></path>
                            </g>
                        </g>
                    </g>
                </g>
            </g>
        </g>
    </g>
</svg>