<?xml version="1.0" encoding="UTF-8"?>
<svg width="42px" height="42px" viewBox="0 0 42 42" version="1.1" xmlns="http://www.w3.org/2000/svg" xmlns:xlink="http://www.w3.org/1999/xlink">
    <!-- Generator: sketchtool 41.2 (35397) - http://www.bohemiancoding.com/sketch -->
    <title>7150D7C4-A28C-4709-8D03-21CC0E076F14</title>
    <desc>Created with sketchtool.</desc>
    <defs></defs>
    <g id="Page-1" stroke="none" stroke-width="1" fill="none" fill-rule="evenodd">
        <g id="LOGIN" transform="translate(-49.000000, -247.000000)" fill="#FFFFFF">
            <g id="BG">
                <g id="Group-2">
                    <g id="LHS">
                        <path d="M49,266.509698 C49,268.658253 50.7503369,270.4 52.9015506,270.4 L63.1817827,270.4 C65.3365496,270.4 67.0833333,268.660314 67.0833333,266.509698 L67.0833333,250.890302 C67.0833333,248.741747 65.3329965,247 63.1817827,247 L52.9015506,247 C50.7467837,247 49,248.739686 49,250.890302 L49,266.509698 Z M49,284.692462 C49,286.850536 50.7503369,288.6 52.9015506,288.6 L63.1817827,288.6 C65.3365496,288.6 67.0833333,286.846539 67.0833333,284.692462 L67.0833333,278.207538 C67.0833333,276.049464 65.3329965,274.3 63.1817827,274.3 L52.9015506,274.3 C50.7467837,274.3 49,276.053461 49,278.207538 L49,284.692462 Z M72.25,284.709698 C72.25,286.858253 74.0003369,288.6 76.1515506,288.6 L86.4317827,288.6 C88.5865496,288.6 90.3333333,286.860314 90.3333333,284.709698 L90.3333333,269.090302 C90.3333333,266.941747 88.5829965,265.2 86.4317827,265.2 L76.1515506,265.2 C73.9967837,265.2 72.25,266.939686 72.25,269.090302 L72.25,284.709698 Z M76.1515506,247 C73.9967837,247 72.25,248.753461 72.25,250.907538 L72.25,257.392462 C72.25,259.550536 74.0003369,261.3 76.1515506,261.3 L86.4317827,261.3 C88.5865496,261.3 90.3333333,259.546539 90.3333333,257.392462 L90.3333333,250.907538 C90.3333333,248.749464 88.5829965,247 86.4317827,247 L76.1515506,247 Z" id="Home-page"></path>
                    </g>
                </g>
            </g>
        </g>
    </g>
</svg>