<?xml version="1.0" encoding="UTF-8"?>
<svg width="37px" height="24px" viewBox="0 0 37 24" version="1.1" xmlns="http://www.w3.org/2000/svg" xmlns:xlink="http://www.w3.org/1999/xlink">
    <!-- Generator: sketchtool 41.2 (35397) - http://www.bohemiancoding.com/sketch -->
    <title>1819E348-A117-48C8-BA95-35E8C8C0D91F</title>
    <desc>Created with sketchtool.</desc>
    <defs></defs>
    <g id="Page-1" stroke="none" stroke-width="1" fill="none" fill-rule="evenodd">
        <g id="LOGIN" transform="translate(-915.000000, -656.000000)" fill="#FFFFFF">
            <g transform="translate(896.000000, 631.000000)" id="LOGIN-BUTTON">
                <path d="M46.0827266,40.0000162 L22,40.0000162 C20.3431458,40.0000162 19,38.6568705 19,37.0000162 C19,35.343162 20.3431458,34.0000162 22,34.0000162 L45.4435776,34.0000162 L41.7922199,30.0311999 C40.6704281,28.8118766 40.7494931,26.9140279 41.9688164,25.7922361 C43.1881396,24.6704444 45.0859884,24.7495093 46.2077801,25.9688326 L54.8254721,35.3357695 C55.8850138,36.4874305 55.8813243,38.260069 54.8169978,39.4073095 L46.8078681,48.0403726 C45.6810103,49.2550156 43.782849,49.3261797 42.5682059,48.199322 C41.3535629,47.0724643 41.2823988,45.1743029 42.4092565,43.9596599 L46.0827266,40.0000162 Z"></path>
            </g>
        </g>
    </g>
</svg>