<?xml version="1.0" encoding="UTF-8"?>
<svg width="33px" height="32px" viewBox="0 0 33 32" version="1.1" xmlns="http://www.w3.org/2000/svg" xmlns:xlink="http://www.w3.org/1999/xlink">
    <!-- Generator: sketchtool 41.2 (35397) - http://www.bohemiancoding.com/sketch -->
    <title>8E775D5D-1C04-4949-83F4-F9998C4868AA</title>
    <desc>Created with sketchtool.</desc>
    <defs></defs>
    <g id="Page-1" stroke="none" stroke-width="1" fill="none" fill-rule="evenodd">
        <g id="LOGIN" transform="translate(-53.000000, -977.000000)" fill="#FFFFFF">
            <g id="BG">
                <g id="Group-2">
                    <g id="LHS">
                        <path d="M86,1002.80975 C85.9432801,1003.09094 85.8936503,1003.37214 85.8285514,1003.65334 C85.116975,1006.70026 82.3196549,1008.91484 79.0775997,1008.98546 C78.1494566,1009.00608 77.220669,1009.00358 76.2925259,1008.98546 C74.7385309,1008.95984 73.5106749,1007.77381 73.4900495,1006.29846 C73.4597039,1004.80124 74.6795676,1003.56003 76.2235598,1003.51711 C77.0479313,1003.48837 77.8735919,1003.51274 78.6992525,1003.50711 C79.7775742,1003.49962 80.3499291,1002.93847 80.3505737,1001.89242 L80.3505737,984.140143 C80.3505737,983.074094 79.7756406,982.515449 78.6818498,982.508576 C77.8226729,982.504201 76.9609179,982.533571 76.1036746,982.48733 C74.0914089,982.3786 72.8545294,980.208385 73.8181223,978.488084 C74.2970184,977.63387 75.0427555,977.074601 76.0585565,977.037108 C77.2928579,976.992116 78.5400501,976.968371 79.766617,977.083974 C82.8855644,977.381418 85.4959668,979.888445 85.9271666,982.895378 C85.9426356,983.005357 85.9755073,983.110337 86,983.217192 L86,1002.80975 Z M62.6958746,995.272418 C62.8305843,995.415516 62.9085741,995.503624 62.9923648,995.584859 C64.1867044,996.752764 65.3874895,997.915045 66.5734501,999.090448 C67.5305976,1000.03964 67.6485491,1001.49437 66.8757411,1002.5423 C66.0552369,1003.65521 64.5760089,1004.05326 63.3391293,1003.464 C63.0328066,1003.3142 62.7533647,1003.11755 62.5115351,1002.88161 C59.6299947,1000.09797 56.7546848,997.308284 53.8856055,994.512561 C52.7028677,993.360904 52.7048013,991.711215 53.8914064,990.557682 C56.6990392,987.828197 59.5109689,985.102461 62.3271956,982.380475 C63.5002653,981.246939 65.2476235,981.23944 66.3916887,982.343607 C67.5086831,983.422153 67.4822568,985.11246 66.3182108,986.25162 C65.2134627,987.334749 64.1026989,988.410379 62.9859193,989.478511 C62.8986909,989.550499 62.8055698,989.615493 62.7074764,989.672849 L62.760329,989.793452 L63.1367426,989.793452 L74.6921237,989.793452 C76.0630684,989.793452 77.234849,990.659538 77.5352064,991.876809 C77.9683398,993.630228 76.6444469,995.258046 74.7578672,995.266169 C72.2705727,995.277417 69.7826336,995.266169 67.2946946,995.266169 L62.6958746,995.266169 L62.6958746,995.272418 Z" id="logout"></path>
                    </g>
                </g>
            </g>
        </g>
    </g>
</svg>