<?xml version="1.0" encoding="UTF-8"?>
<svg width="123px" height="117px" viewBox="0 0 123 117" version="1.1" xmlns="http://www.w3.org/2000/svg" xmlns:xlink="http://www.w3.org/1999/xlink">
    <!-- Generator: sketchtool 41.2 (35397) - http://www.bohemiancoding.com/sketch -->
    <title>707EB9E4-1EF1-4594-A408-EB99888B2013</title>
    <desc>Created with sketchtool.</desc>
    <defs></defs>
    <g id="Page-1" stroke="none" stroke-width="1" fill="none" fill-rule="evenodd">
        <g id="LOGIN" transform="translate(-848.000000, -800.000000)">
            <g id="BG">
                <g id="Group-2">
                    <g id="Mytournament" transform="translate(801.000000, 735.000000)">
                        <g id="My-tournament" style="mix-blend-mode: luminosity;" transform="translate(47.000000, 65.000000)">
                            <g id="Capa_1">
                                <g id="XMLID_6_">
                                    <path d="M61.399755,64.7040709 L61.4000625,64.7037638 L25.9311675,76.2020079 L23.4441075,116.875937 C23.4441075,116.875937 61.05474,65.179748 61.396065,64.7102126 L61.399755,64.7040709 Z" id="XMLID_338_" fill="#91DC5A"></path>
                                    <polygon id="XMLID_340_" fill="#933EC5" points="122.810888 44.7830551 83.328195 34.5816378 61.40037 64.7040709"></polygon>
                                    <polygon id="XMLID_341_" fill="#64C37D" points="61.40037 64.7047511 61.40037 64.7040709 61.40037 64.7040709"></polygon>
                                    <path d="M61.4000625,64.704378 C61.4000625,64.704378 61.3976025,64.708063 61.396065,64.7099055 C61.0544325,65.1794409 23.4441075,116.87563 23.4441075,116.87563 L61.3951425,101.979472 L61.3896075,101.977323 L61.4000625,64.704378 Z" id="XMLID_348_" fill="#64C37D"></path>
                                    <polygon id="XMLID_350_" fill="#FF9811" points="0 44.7802913 25.9311675 76.2020079 61.4000625 64.7037638"></polygon>
                                    <polygon id="XMLID_351_" fill="#FF9811" points="61.399755 64.704444 61.4004383 64.704444 61.4004383 64.704444 61.4011217 64.704444 61.4004383 64.7037638"></polygon>
                                    <polygon id="XMLID_352_" fill="#00D7DF" points="96.8800275 76.2219685 61.40037 64.7040709 99.35202 116.902654 96.880335 76.2345591"></polygon>
                                    <polygon id="XMLID_439_" fill="#EA348B" points="61.40037 64.7037638 61.40037 0.21588189 39.4790025 34.5721181 39.489765 34.5690472"></polygon>
                                    <polygon id="XMLID_334_" fill="#F7AED1" points="61.40037 64.7040709 83.328195 34.5816378 61.40037 0.21588189 61.40037 64.7037638"></polygon>
                                    <polygon id="XMLID_440_" fill="#FFDA44" points="39.489765 34.5690472 39.4790025 34.5721181 0 44.7802913 61.40037 64.7037638"></polygon>
                                    <polygon id="XMLID_441_" fill="#99EFF2" points="61.40037 64.7040709 61.4000625 64.7040709 61.4000625 64.7040709 61.4000625 64.704378 61.3896075 101.977323 61.3951425 101.979472 99.35202 116.902654 61.40037 64.704378"></polygon>
                                    <polygon id="XMLID_443_" fill="#7C84E8" points="96.8800275 76.2219685 122.810888 44.7830551 61.40037 64.7040709"></polygon>
                                </g>
                            </g>
                        </g>
                    </g>
                </g>
            </g>
        </g>
    </g>
</svg>