<?xml version="1.0" encoding="UTF-8"?>
<svg width="130px" height="117px" viewBox="0 0 130 117" version="1.1" xmlns="http://www.w3.org/2000/svg" xmlns:xlink="http://www.w3.org/1999/xlink">
    <!-- Generator: sketchtool 41.2 (35397) - http://www.bohemiancoding.com/sketch -->
    <title>B19C5ABD-A03E-49FA-B849-EA6337285D2F</title>
    <desc>Created with sketchtool.</desc>
    <defs></defs>
    <g id="Page-1" stroke="none" stroke-width="1" fill="none" fill-rule="evenodd">
        <g id="Lobby" transform="translate(-650.000000, -27.000000)">
            <g id="User-profile" transform="translate(133.000000, 0.000000)">
                <g id="REVIEW-TOUCH-POINT" transform="translate(517.000000, 27.000000)">
                    <ellipse id="Oval" fill="#3DE689" cx="58.4360156" cy="58.5002532" rx="58.4334766" ry="58.2817013"></ellipse>
                    <path d="M114.560977,42.2922078 L104.368418,60.0896299 L91.3638477,53.5903052 L71.6569141,86.3406818 L58.1953125,72.9148052 L45.2141016,79.3741169 L25.9657227,60.2046039 L12.9956836,73.1417143 L0.0540820313,60.5938442 C0.0289453125,59.8976688 0.000761718751,59.2025065 0.000761718751,58.4997468 C0.000761718751,90.6874091 26.1630078,116.781955 58.4347461,116.781955 C90.7072461,116.781955 116.86873,90.6876623 116.86873,58.4997468 C116.868477,52.8733636 116.05293,47.4397013 114.560977,42.2922078 Z" id="Shape" fill="#2ECE76"></path>
                    <path d="M0.1015625,61.8879351 L0.1015625,58.6002857 L6.40605469,58.6002857 L6.40605469,64.8873896 L0.351660156,64.8873896 C0.359023438,64.9545 0.367148438,65.0213571 0.374765625,65.0884675 L6.40605469,65.0884675 L6.40605469,71.347461 L1.42847656,71.347461 C1.44345703,71.4143182 1.45716797,71.4816818 1.47240234,71.548539 L6.40605469,71.548539 L6.40605469,77.8364026 L3.29849609,77.8364026 C3.32210938,77.903513 3.34572266,77.9703701 3.36958984,78.0374805 L6.40605469,78.0374805 L6.40605469,84.296474 L6.02671875,84.296474 C6.05998047,84.3635844 6.09349609,84.4304416 6.12675781,84.4975519 L6.40580078,84.4975519 L6.40580078,85.0564675 C6.4715625,85.1843571 6.540625,85.3102208 6.60740234,85.4373506 L6.60740234,84.4975519 L12.8819336,84.4975519 L12.8819336,90.7838961 L9.78123047,90.7838961 C9.82591797,90.8507532 9.86908203,90.9183701 9.91376953,90.984974 L12.8819336,90.984974 L12.8819336,95.0002013 C12.9492188,95.0835195 13.0157422,95.1668377 13.0835352,95.2499026 L13.0835352,90.9852273 L19.3870117,90.9852273 L19.3870117,97.2442208 L14.7867383,97.2442208 C14.8466602,97.3113312 14.9053125,97.3784416 14.9654883,97.4452987 L19.3875195,97.4452987 L19.3875195,101.855844 C19.4542969,101.915864 19.5218359,101.974617 19.5891211,102.03413 L19.5891211,97.4452987 L25.8644141,97.4452987 L25.8644141,103.733162 L21.5891406,103.733162 C21.6724219,103.800526 21.755957,103.86713 21.8394922,103.93424 L25.8644141,103.93424 L25.8644141,106.894188 C25.9311914,106.939013 25.9989844,106.981812 26.0660156,107.026383 L26.0660156,103.93424 L32.3694922,103.93424 L32.3694922,110.193234 L31.4287695,110.193234 C31.5562305,110.259838 31.6826758,110.328468 31.8106445,110.394312 L32.3694922,110.394312 L32.3694922,110.67187 C32.4367773,110.705299 32.5035547,110.738727 32.5710938,110.771649 L32.5710938,110.394058 L38.8471484,110.394058 L38.8471484,113.42213 C38.9144336,113.445935 38.9814648,113.469487 39.04875,113.493039 L39.04875,110.394058 L45.3514648,110.394058 L45.3514648,115.313883 C45.4184961,115.329078 45.4857813,115.342753 45.5530664,115.357695 L45.5530664,110.394058 L51.8291211,110.394058 L51.8291211,116.408922 C51.8964063,116.416519 51.9631836,116.424623 52.0307227,116.431968 L52.0307227,110.394058 L58.3341992,110.394058 L58.3341992,116.681162 L55.0379883,116.681162 C56.1625391,116.745487 57.2944531,116.781448 58.435,116.781448 C59.5755469,116.781448 60.7074609,116.745234 61.8320117,116.681162 L58.5358008,116.681162 L58.5358008,110.394058 L64.8400391,110.394058 L64.8400391,116.431968 C64.9073242,116.424623 64.9743555,116.416519 65.0416406,116.408922 L65.0416406,110.394058 L71.3161719,110.394058 L71.3161719,115.357948 C71.3832031,115.343006 71.4507422,115.329331 71.5177734,115.314136 L71.5177734,110.394058 L77.82125,110.394058 L77.82125,113.493039 C77.8885352,113.469487 77.9555664,113.445935 78.0228516,113.42213 L78.0228516,110.394058 L84.2973828,110.394058 L84.2973828,110.772409 C84.364668,110.739234 84.4316992,110.705805 84.4989844,110.67263 L84.4989844,110.394312 L85.0593555,110.394312 C85.1873242,110.328721 85.3137695,110.259838 85.4412305,110.193234 L84.4989844,110.193234 L84.4989844,103.93424 L90.8032227,103.93424 L90.8032227,107.027143 C90.8702539,106.982571 90.9380469,106.939519 91.0048242,106.894948 L91.0048242,103.934494 L95.0305078,103.934494 C95.114043,103.867383 95.1975781,103.801032 95.2808594,103.733416 L91.0050781,103.733416 L91.0050781,97.4455519 L97.2803711,97.4455519 L97.2803711,102.035143 C97.3474023,101.975377 97.4149414,101.916877 97.4819727,101.856857 L97.4819727,97.4455519 L101.904766,97.4455519 C101.964941,97.3789481 102.023848,97.3115844 102.083516,97.244474 L97.4819727,97.244474 L97.4819727,90.9854805 L103.785449,90.9854805 L103.785449,95.2511688 C103.852988,95.1681039 103.919766,95.0847857 103.987051,95.0014675 L103.987051,90.9852273 L106.95623,90.9852273 C107.001172,90.9186234 107.044082,90.8510065 107.08877,90.7841494 L103.986035,90.7841494 L103.986035,84.4972987 L110.261328,84.4972987 L110.261328,85.4370974 C110.328105,85.3099675 110.396914,85.1838506 110.46293,85.0562143 L110.46293,84.4972987 L110.741973,84.4972987 C110.775488,84.4301883 110.809004,84.3635844 110.842012,84.2962208 L110.462676,84.2962208 L110.462676,78.0372273 L113.499141,78.0372273 C113.523008,77.9701169 113.546621,77.9032597 113.570234,77.8361494 L110.462676,77.8361494 L110.462676,71.5482857 L115.396328,71.5482857 C115.411563,71.4814286 115.425273,71.4143182 115.440254,71.3472078 L110.462676,71.3472078 L110.462676,65.0882143 L116.493965,65.0882143 C116.501582,65.0211039 116.509707,64.9545 116.51707,64.8871364 L110.462676,64.8871364 L110.462676,58.6000325 L116.766914,58.6000325 L116.766914,61.8876818 C116.831406,60.7660519 116.867461,59.6370779 116.867461,58.4994935 C116.867461,57.3616558 116.831152,56.2329351 116.766914,55.1113052 L116.766914,58.3987013 L110.462676,58.3987013 L110.462676,52.1115974 L116.51707,52.1115974 C116.509707,52.044487 116.501582,51.9776299 116.493965,51.9105195 L110.462676,51.9105195 L110.462676,45.651526 L115.440254,45.651526 C115.425273,45.5846688 115.411563,45.5173052 115.396328,45.4504481 L110.462676,45.4504481 L110.462676,39.1625844 L113.570234,39.1625844 C113.546621,39.095474 113.523008,39.0286169 113.499141,38.9615065 L110.462676,38.9615065 L110.462676,32.702513 L110.842012,32.702513 C110.80875,32.6354026 110.775234,32.5685455 110.741973,32.5014351 L110.46293,32.5014351 L110.46293,31.9425195 C110.397168,31.8146299 110.328105,31.6887662 110.261328,31.5616364 L110.261328,32.5014351 L103.986035,32.5014351 L103.986035,26.2150909 L107.087754,26.2150909 C107.043066,26.1482338 106.999902,26.0806169 106.955215,26.014013 L103.986035,26.014013 L103.986035,21.9977727 C103.91875,21.9144545 103.852227,21.8311364 103.784434,21.7480714 L103.784434,26.0137597 L97.480957,26.0137597 L97.480957,19.7547662 L102.0825,19.7547662 C102.022578,19.6879091 101.963926,19.6205455 101.90375,19.5536883 L97.480957,19.5536883 L97.480957,15.1431429 C97.4141797,15.0831234 97.3466406,15.0243701 97.2793555,14.9648571 L97.2793555,19.5544481 L91.0040625,19.5544481 L91.0040625,13.2663312 L95.2798438,13.2663312 C95.1965625,13.1989675 95.1130273,13.1323636 95.0294922,13.0652532 L91.0038086,13.0652532 L91.0038086,10.1047987 C90.9370313,10.059974 90.8692383,10.0169221 90.802207,9.9726039 L90.802207,13.0655065 L84.4979688,13.0655065 L84.4979688,6.80625974 L85.4402148,6.80625974 C85.3127539,6.73965584 85.1863086,6.67102597 85.0583398,6.60518182 L84.4979688,6.60518182 L84.4979688,6.32686364 C84.4306836,6.29343506 84.3639063,6.26000649 84.2963672,6.22708442 L84.2963672,6.60543506 L78.0218359,6.60543506 L78.0218359,3.57711039 C77.9545508,3.55330519 77.8875195,3.52975325 77.8202344,3.5062013 L77.8202344,6.60518182 L71.5167578,6.60518182 L71.5167578,1.68535714 C71.4497266,1.67016234 71.3824414,1.65648701 71.3151563,1.64154545 L71.3151563,6.60543506 L65.040625,6.60543506 L65.040625,0.590571429 C64.9733398,0.582974026 64.9065625,0.57487013 64.8390234,0.567525974 L64.8390234,6.60543506 L58.5347852,6.60543506 L58.5347852,0.318077922 L61.8309961,0.318077922 C60.7064453,0.253753247 59.5745313,0.217792208 58.4339844,0.217792208 C57.2934375,0.217792208 56.1615234,0.254006494 55.0369727,0.318077922 L58.3331836,0.318077922 L58.3331836,6.60518182 L52.029707,6.60518182 L52.029707,0.567525974 C51.9624219,0.57487013 51.8953906,0.582974026 51.8281055,0.590571429 L51.8281055,6.60543506 L45.5520508,6.60543506 L45.5520508,1.6417987 C45.4850195,1.65674026 45.4174805,1.67041558 45.3504492,1.68561039 L45.3504492,6.60543506 L39.0477344,6.60543506 L39.0477344,3.50645455 C38.9804492,3.53000649 38.913418,3.55355844 38.8461328,3.57736364 L38.8461328,6.60543506 L32.5700781,6.60543506 L32.5700781,6.22784416 C32.502793,6.26101948 32.4357617,6.29444805 32.3684766,6.32762338 L32.3684766,6.60518182 L31.8096289,6.60518182 C31.6816602,6.67077273 31.5552148,6.73965584 31.4277539,6.80625974 L32.3684766,6.80625974 L32.3684766,13.0652532 L26.065,13.0652532 L26.065,9.97311039 C25.9979688,10.0176818 25.9301758,10.0607338 25.8633984,10.1053052 L25.8633984,13.0655065 L21.8392383,13.0655065 C21.7557031,13.1326169 21.672168,13.1989675 21.5888867,13.2665844 L25.8639063,13.2665844 L25.8639063,19.5544481 L19.5886133,19.5544481 L19.5886133,14.9656169 C19.521582,15.0253831 19.454043,15.0838831 19.3870117,15.1439026 L19.3870117,19.5544481 L14.9652344,19.5544481 C14.9050586,19.6210519 14.8461523,19.6884156 14.7864844,19.755526 L19.3872656,19.755526 L19.3872656,26.0145195 L13.0835352,26.0145195 L13.0835352,21.7498442 C13.0157422,21.8329091 12.9492188,21.9162273 12.8819336,21.9995455 L12.8819336,26.0147727 L9.91376953,26.0147727 C9.86882813,26.0813766 9.82566406,26.1489935 9.78123047,26.2158506 L12.8821875,26.2158506 L12.8821875,32.5021948 L6.60765625,32.5021948 L6.60765625,31.5623961 C6.54087891,31.689526 6.47207031,31.8156429 6.40605469,31.9432792 L6.40605469,32.5021948 L6.12675781,32.5021948 C6.09324219,32.5693052 6.05972656,32.6359091 6.02671875,32.7032727 L6.40605469,32.7032727 L6.40605469,38.9622662 L3.36933594,38.9622662 C3.34546875,39.0293766 3.32185547,39.0962338 3.29824219,39.1633442 L6.40605469,39.1633442 L6.40605469,45.4512078 L1.47240234,45.4512078 C1.45716797,45.5180649 1.44345703,45.5851753 1.42847656,45.6522857 L6.40605469,45.6522857 L6.40605469,51.9112792 L0.374765625,51.9112792 C0.367148438,51.9783896 0.359023438,52.0449935 0.351660156,52.1123571 L6.40605469,52.1123571 L6.40605469,58.399461 L0.1015625,58.399461 L0.1015625,55.1118117 C0.0370703125,56.2334416 0.001015625,57.3624156 0.001015625,58.5 C0.001015625,59.6380909 0.0370703125,60.7663052 0.1015625,61.8879351 Z M6.60765625,58.6000325 L12.8821875,58.6000325 L12.8821875,64.8871364 L6.60765625,64.8871364 L6.60765625,58.6000325 Z M26.0655078,71.548539 L32.3689844,71.548539 L32.3689844,77.8364026 L26.0655078,77.8364026 L26.0655078,71.548539 L26.0655078,71.548539 Z M25.8641602,77.8364026 L19.5886133,77.8364026 L19.5886133,71.548539 L25.8639063,71.548539 L25.8639063,77.8364026 L25.8641602,77.8364026 Z M58.3339453,65.0884675 L58.3339453,71.347461 L52.0304688,71.347461 L52.0304688,65.0884675 L58.3339453,65.0884675 Z M52.0302148,64.8873896 L52.0302148,58.6002857 L58.3336914,58.6002857 L58.3336914,64.8873896 L52.0302148,64.8873896 Z M58.5355469,65.0884675 L64.8397852,65.0884675 L64.8397852,71.347461 L58.5355469,71.347461 L58.5355469,65.0884675 Z M58.5355469,64.8873896 L58.5355469,58.6002857 L64.8397852,58.6002857 L64.8397852,64.8873896 L58.5355469,64.8873896 Z M65.0413867,58.6000325 L71.315918,58.6000325 L71.315918,64.8871364 L65.0413867,64.8871364 L65.0413867,58.6000325 Z M65.0413867,58.3992078 L65.0413867,52.1121039 L71.315918,52.1121039 L71.315918,58.3992078 L65.0413867,58.3992078 Z M64.8400391,58.3992078 L58.5358008,58.3992078 L58.5358008,52.1121039 L64.8400391,52.1121039 L64.8400391,58.3992078 Z M58.5355469,51.911026 L58.5355469,45.6520325 L64.8397852,45.6520325 L64.8397852,51.911026 L58.5355469,51.911026 Z M58.3339453,51.911026 L52.0304688,51.911026 L52.0304688,45.6520325 L58.3339453,45.6520325 L58.3339453,51.911026 L58.3339453,51.911026 Z M58.3339453,52.1118506 L58.3339453,58.3989545 L52.0304688,58.3989545 L52.0304688,52.1118506 L58.3339453,52.1118506 Z M51.8288672,58.3992078 L45.5528125,58.3992078 L45.5528125,52.1121039 L51.8288672,52.1121039 L51.8288672,58.3992078 Z M51.8288672,58.6000325 L51.8288672,64.8871364 L45.5528125,64.8871364 L45.5528125,58.6000325 L51.8288672,58.6000325 Z M45.3512109,64.8873896 L39.0484961,64.8873896 L39.0484961,58.6002857 L45.3512109,58.6002857 L45.3512109,64.8873896 Z M45.3512109,65.0884675 L45.3512109,71.347461 L39.0484961,71.347461 L39.0484961,65.0884675 L45.3512109,65.0884675 Z M45.5525586,65.0884675 L51.8286133,65.0884675 L51.8286133,71.347461 L45.5525586,71.347461 L45.5525586,65.0884675 Z M51.8288672,71.548539 L51.8288672,77.8364026 L45.5528125,77.8364026 L45.5528125,71.548539 L51.8288672,71.548539 Z M52.0302148,71.548539 L58.3336914,71.548539 L58.3336914,77.8364026 L52.0302148,77.8364026 L52.0302148,71.548539 Z M58.3339453,78.0374805 L58.3339453,84.296474 L52.0304688,84.296474 L52.0304688,78.0374805 L58.3339453,78.0374805 Z M58.5355469,78.0374805 L64.8397852,78.0374805 L64.8397852,84.296474 L58.5355469,84.296474 L58.5355469,78.0374805 Z M58.5355469,77.8364026 L58.5355469,71.548539 L64.8397852,71.548539 L64.8397852,77.8364026 L58.5355469,77.8364026 Z M65.0413867,71.548539 L71.315918,71.548539 L71.315918,77.8364026 L65.0413867,77.8364026 L65.0413867,71.548539 Z M65.0413867,71.347461 L65.0413867,65.0884675 L71.315918,65.0884675 L71.315918,71.347461 L65.0413867,71.347461 Z M71.5175195,65.0884675 L77.8209961,65.0884675 L77.8209961,71.347461 L71.5175195,71.347461 L71.5175195,65.0884675 Z M71.5175195,64.8873896 L71.5175195,58.6002857 L77.8209961,58.6002857 L77.8209961,64.8873896 L71.5175195,64.8873896 Z M78.0225977,58.6000325 L84.2971289,58.6000325 L84.2971289,64.8871364 L78.0225977,64.8871364 L78.0225977,58.6000325 Z M78.0225977,58.3992078 L78.0225977,52.1121039 L84.2971289,52.1121039 L84.2971289,58.3992078 L78.0225977,58.3992078 Z M77.8209961,58.3992078 L71.5175195,58.3992078 L71.5175195,52.1121039 L77.8209961,52.1121039 L77.8209961,58.3992078 Z M71.5175195,51.911026 L71.5175195,45.6520325 L77.8209961,45.6520325 L77.8209961,51.911026 L71.5175195,51.911026 Z M71.315918,51.911026 L65.0413867,51.911026 L65.0413867,45.6520325 L71.315918,45.6520325 L71.315918,51.911026 Z M65.0413867,45.4509545 L65.0413867,39.1630909 L71.315918,39.1630909 L71.315918,45.4509545 L65.0413867,45.4509545 Z M64.8400391,45.4509545 L58.5358008,45.4509545 L58.5358008,39.1630909 L64.8400391,39.1630909 L64.8400391,45.4509545 Z M58.5355469,38.962013 L58.5355469,32.7030195 L64.8397852,32.7030195 L64.8397852,38.962013 L58.5355469,38.962013 Z M58.3339453,38.962013 L52.0304688,38.962013 L52.0304688,32.7030195 L58.3339453,32.7030195 L58.3339453,38.962013 L58.3339453,38.962013 Z M58.3339453,39.1630909 L58.3339453,45.4509545 L52.0304688,45.4509545 L52.0304688,39.1630909 L58.3339453,39.1630909 Z M51.8288672,45.4509545 L45.5528125,45.4509545 L45.5528125,39.1630909 L51.8288672,39.1630909 L51.8288672,45.4509545 Z M51.8288672,45.6520325 L51.8288672,51.911026 L45.5528125,51.911026 L45.5528125,45.6520325 L51.8288672,45.6520325 Z M45.3512109,51.911026 L39.0484961,51.911026 L39.0484961,45.6520325 L45.3512109,45.6520325 L45.3512109,51.911026 Z M45.3512109,52.1118506 L45.3512109,58.3989545 L39.0484961,58.3989545 L39.0484961,52.1118506 L45.3512109,52.1118506 Z M38.8468945,58.3992078 L32.5708398,58.3992078 L32.5708398,52.1121039 L38.8468945,52.1121039 L38.8468945,58.3992078 Z M38.8468945,58.6000325 L38.8468945,64.8871364 L32.5708398,64.8871364 L32.5708398,58.6000325 L38.8468945,58.6000325 Z M38.8468945,65.0884675 L38.8468945,71.347461 L32.5708398,71.347461 L32.5708398,65.0884675 L38.8468945,65.0884675 Z M38.8468945,71.548539 L38.8468945,77.8364026 L32.5708398,77.8364026 L32.5708398,71.548539 L38.8468945,71.548539 Z M39.0484961,71.548539 L45.3512109,71.548539 L45.3512109,77.8364026 L39.0484961,77.8364026 L39.0484961,71.548539 Z M45.3512109,78.0374805 L45.3512109,84.296474 L39.0484961,84.296474 L39.0484961,78.0374805 L45.3512109,78.0374805 Z M45.5525586,78.0374805 L51.8286133,78.0374805 L51.8286133,84.296474 L45.5525586,84.296474 L45.5525586,78.0374805 Z M51.8288672,84.4975519 L51.8288672,90.7838961 L45.5528125,90.7838961 L45.5528125,84.4975519 L51.8288672,84.4975519 Z M52.0302148,84.4975519 L58.3336914,84.4975519 L58.3336914,90.7838961 L52.0302148,90.7838961 L52.0302148,84.4975519 Z M58.5355469,84.4975519 L64.8397852,84.4975519 L64.8397852,90.7838961 L58.5355469,90.7838961 L58.5355469,84.4975519 Z M65.0413867,84.4975519 L71.315918,84.4975519 L71.315918,90.7838961 L65.0413867,90.7838961 L65.0413867,84.4975519 Z M65.0413867,84.296474 L65.0413867,78.0374805 L71.315918,78.0374805 L71.315918,84.296474 L65.0413867,84.296474 Z M71.5175195,78.0374805 L77.8209961,78.0374805 L77.8209961,84.296474 L71.5175195,84.296474 L71.5175195,78.0374805 Z M71.5175195,77.8364026 L71.5175195,71.548539 L77.8209961,71.548539 L77.8209961,77.8364026 L71.5175195,77.8364026 Z M78.0225977,71.548539 L84.2971289,71.548539 L84.2971289,77.8364026 L78.0225977,77.8364026 L78.0225977,71.548539 Z M78.0225977,71.347461 L78.0225977,65.0884675 L84.2971289,65.0884675 L84.2971289,71.347461 L78.0225977,71.347461 Z M84.4987305,65.0884675 L90.8029688,65.0884675 L90.8029688,71.347461 L84.4987305,71.347461 L84.4987305,65.0884675 Z M84.4987305,64.8873896 L84.4987305,58.6002857 L90.8029688,58.6002857 L90.8029688,64.8873896 L84.4987305,64.8873896 Z M84.4987305,58.3992078 L84.4987305,52.1121039 L90.8029688,52.1121039 L90.8029688,58.3992078 L84.4987305,58.3992078 Z M84.4987305,51.911026 L84.4987305,45.6520325 L90.8029688,45.6520325 L90.8029688,51.911026 L84.4987305,51.911026 Z M84.2971289,51.911026 L78.0225977,51.911026 L78.0225977,45.6520325 L84.2971289,45.6520325 L84.2971289,51.911026 Z M78.0225977,45.4509545 L78.0225977,39.1630909 L84.2971289,39.1630909 L84.2971289,45.4509545 L78.0225977,45.4509545 Z M77.8209961,45.4509545 L71.5175195,45.4509545 L71.5175195,39.1630909 L77.8209961,39.1630909 L77.8209961,45.4509545 Z M71.5175195,38.962013 L71.5175195,32.7030195 L77.8209961,32.7030195 L77.8209961,38.962013 L71.5175195,38.962013 Z M71.315918,38.962013 L65.0413867,38.962013 L65.0413867,32.7030195 L71.315918,32.7030195 L71.315918,38.962013 Z M65.0413867,32.5016883 L65.0413867,26.2153442 L71.315918,26.2153442 L71.315918,32.5016883 L65.0413867,32.5016883 Z M64.8400391,32.5016883 L58.5358008,32.5016883 L58.5358008,26.2153442 L64.8400391,26.2153442 L64.8400391,32.5016883 Z M58.3339453,32.5016883 L52.0304688,32.5016883 L52.0304688,26.2153442 L58.3339453,26.2153442 L58.3339453,32.5016883 L58.3339453,32.5016883 Z M51.8288672,32.5016883 L45.5528125,32.5016883 L45.5528125,26.2153442 L51.8288672,26.2153442 L51.8288672,32.5016883 Z M51.8288672,32.7027662 L51.8288672,38.9617597 L45.5528125,38.9617597 L45.5528125,32.7027662 L51.8288672,32.7027662 Z M45.3512109,38.962013 L39.0484961,38.962013 L39.0484961,32.7030195 L45.3512109,32.7030195 L45.3512109,38.962013 Z M45.3512109,39.1630909 L45.3512109,45.4509545 L39.0484961,45.4509545 L39.0484961,39.1630909 L45.3512109,39.1630909 Z M38.8468945,45.4509545 L32.5708398,45.4509545 L32.5708398,39.1630909 L38.8468945,39.1630909 L38.8468945,45.4509545 Z M38.8468945,45.6520325 L38.8468945,51.911026 L32.5708398,51.911026 L32.5708398,45.6520325 L38.8468945,45.6520325 Z M32.3692383,51.911026 L26.0657617,51.911026 L26.0657617,45.6520325 L32.3692383,45.6520325 L32.3692383,51.911026 L32.3692383,51.911026 Z M32.3692383,52.1118506 L32.3692383,58.3989545 L26.0657617,58.3989545 L26.0657617,52.1118506 L32.3692383,52.1118506 Z M32.3692383,58.6000325 L32.3692383,64.8871364 L26.0657617,64.8871364 L26.0657617,58.6000325 L32.3692383,58.6000325 Z M32.3692383,65.0884675 L32.3692383,71.347461 L26.0657617,71.347461 L26.0657617,65.0884675 L32.3692383,65.0884675 Z M32.3692383,78.0374805 L32.3692383,84.296474 L26.0657617,84.296474 L26.0657617,78.0374805 L32.3692383,78.0374805 Z M32.5708398,78.0374805 L38.8468945,78.0374805 L38.8468945,84.296474 L32.5708398,84.296474 L32.5708398,78.0374805 Z M38.8468945,84.4975519 L38.8468945,90.7838961 L32.5708398,90.7838961 L32.5708398,84.4975519 L38.8468945,84.4975519 Z M39.0484961,84.4975519 L45.3512109,84.4975519 L45.3512109,90.7838961 L39.0484961,90.7838961 L39.0484961,84.4975519 Z M45.3512109,90.9847208 L45.3512109,97.2437143 L39.0484961,97.2437143 L39.0484961,90.9847208 L45.3512109,90.9847208 Z M45.5525586,90.9847208 L51.8286133,90.9847208 L51.8286133,97.2437143 L45.5525586,97.2437143 L45.5525586,90.9847208 Z M52.0302148,90.9847208 L58.3336914,90.9847208 L58.3336914,97.2437143 L52.0302148,97.2437143 L52.0302148,90.9847208 Z M58.5355469,90.9847208 L64.8397852,90.9847208 L64.8397852,97.2437143 L58.5355469,97.2437143 L58.5355469,90.9847208 Z M65.0413867,90.9847208 L71.315918,90.9847208 L71.315918,97.2437143 L65.0413867,97.2437143 L65.0413867,90.9847208 Z M71.5175195,90.9847208 L77.8209961,90.9847208 L77.8209961,97.2437143 L71.5175195,97.2437143 L71.5175195,90.9847208 Z M71.5175195,90.7841494 L71.5175195,84.4978052 L77.8209961,84.4978052 L77.8209961,90.7841494 L71.5175195,90.7841494 Z M78.0225977,84.4975519 L84.2971289,84.4975519 L84.2971289,90.7838961 L78.0225977,90.7838961 L78.0225977,84.4975519 Z M78.0225977,84.296474 L78.0225977,78.0374805 L84.2971289,78.0374805 L84.2971289,84.296474 L78.0225977,84.296474 Z M84.4987305,78.0374805 L90.8029688,78.0374805 L90.8029688,84.296474 L84.4987305,84.296474 L84.4987305,78.0374805 Z M84.4987305,77.8364026 L84.4987305,71.548539 L90.8029688,71.548539 L90.8029688,77.8364026 L84.4987305,77.8364026 Z M91.0045703,71.548539 L97.2798633,71.548539 L97.2798633,77.8364026 L91.0045703,77.8364026 L91.0045703,71.548539 Z M91.0045703,71.347461 L91.0045703,65.0884675 L97.2798633,65.0884675 L97.2798633,71.347461 L91.0045703,71.347461 Z M91.0045703,64.8873896 L91.0045703,58.6002857 L97.2798633,58.6002857 L97.2798633,64.8873896 L91.0045703,64.8873896 Z M91.0045703,58.3992078 L91.0045703,52.1121039 L97.2798633,52.1121039 L97.2798633,58.3992078 L91.0045703,58.3992078 Z M91.0045703,51.911026 L91.0045703,45.6520325 L97.2798633,45.6520325 L97.2798633,51.911026 L91.0045703,51.911026 Z M91.0045703,45.4509545 L91.0045703,39.1630909 L97.2798633,39.1630909 L97.2798633,45.4509545 L91.0045703,45.4509545 Z M90.8032227,45.4509545 L84.4987305,45.4509545 L84.4987305,39.1630909 L90.8029688,39.1630909 L90.8032227,45.4509545 L90.8032227,45.4509545 Z M84.4987305,38.962013 L84.4987305,32.7030195 L90.8029688,32.7030195 L90.8029688,38.962013 L84.4987305,38.962013 Z M84.2971289,38.962013 L78.0225977,38.962013 L78.0225977,32.7030195 L84.2971289,32.7030195 L84.2971289,38.962013 Z M78.0225977,32.5016883 L78.0225977,26.2153442 L84.2971289,26.2153442 L84.2971289,32.5016883 L78.0225977,32.5016883 Z M77.8209961,32.5016883 L71.5175195,32.5016883 L71.5175195,26.2153442 L77.8209961,26.2153442 L77.8209961,32.5016883 Z M71.5175195,26.0142662 L71.5175195,19.7552727 L77.8209961,19.7552727 L77.8209961,26.0142662 L71.5175195,26.0142662 Z M71.315918,26.0142662 L65.0413867,26.0142662 L65.0413867,19.7552727 L71.315918,19.7552727 L71.315918,26.0142662 Z M64.8400391,26.0142662 L58.5358008,26.0142662 L58.5358008,19.7552727 L64.8400391,19.7552727 L64.8400391,26.0142662 Z M58.3339453,26.0142662 L52.0304688,26.0142662 L52.0304688,19.7552727 L58.3339453,19.7552727 L58.3339453,26.0142662 L58.3339453,26.0142662 Z M51.8288672,26.0142662 L45.5528125,26.0142662 L45.5528125,19.7552727 L51.8288672,19.7552727 L51.8288672,26.0142662 Z M45.3512109,26.0142662 L39.0484961,26.0142662 L39.0484961,19.7552727 L45.3512109,19.7552727 L45.3512109,26.0142662 Z M45.3512109,26.2153442 L45.3512109,32.5016883 L39.0484961,32.5016883 L39.0484961,26.2153442 L45.3512109,26.2153442 Z M38.8468945,32.5016883 L32.5708398,32.5016883 L32.5708398,26.2153442 L38.8468945,26.2153442 L38.8468945,32.5016883 Z M38.8468945,32.7027662 L38.8468945,38.9617597 L32.5708398,38.9617597 L32.5708398,32.7027662 L38.8468945,32.7027662 Z M32.3692383,38.962013 L26.0657617,38.962013 L26.0657617,32.7030195 L32.3692383,32.7030195 L32.3692383,38.962013 L32.3692383,38.962013 Z M32.3692383,39.1630909 L32.3692383,45.4509545 L26.0657617,45.4509545 L26.0657617,39.1630909 L32.3692383,39.1630909 Z M25.8641602,45.4509545 L19.5886133,45.4509545 L19.5886133,39.1630909 L25.8639063,39.1630909 L25.8639063,45.4509545 L25.8641602,45.4509545 Z M25.8641602,45.6520325 L25.8641602,51.911026 L19.5886133,51.911026 L19.5886133,45.6520325 L25.8641602,45.6520325 Z M25.8641602,52.1118506 L25.8641602,58.3989545 L19.5886133,58.3989545 L19.5886133,52.1118506 L25.8641602,52.1118506 Z M25.8641602,58.6000325 L25.8641602,64.8871364 L19.5886133,64.8871364 L19.5886133,58.6000325 L25.8641602,58.6000325 Z M25.8641602,65.0884675 L25.8641602,71.347461 L19.5886133,71.347461 L19.5886133,65.0884675 L25.8641602,65.0884675 Z M19.3870117,71.347461 L13.0835352,71.347461 L13.0835352,65.0884675 L19.3870117,65.0884675 L19.3870117,71.347461 Z M19.3870117,71.548539 L19.3870117,77.8364026 L13.0835352,77.8364026 L13.0835352,71.548539 L19.3870117,71.548539 Z M19.3870117,78.0374805 L19.3870117,84.296474 L13.0835352,84.296474 L13.0835352,78.0374805 L19.3870117,78.0374805 Z M19.5886133,78.0374805 L25.8639063,78.0374805 L25.8639063,84.296474 L19.5886133,84.296474 L19.5886133,78.0374805 Z M25.8641602,84.4975519 L25.8641602,90.7838961 L19.5886133,90.7838961 L19.5886133,84.4975519 L25.8641602,84.4975519 Z M26.0655078,84.4975519 L32.3689844,84.4975519 L32.3689844,90.7838961 L26.0655078,90.7838961 L26.0655078,84.4975519 L26.0655078,84.4975519 Z M32.3692383,90.9847208 L32.3692383,97.2437143 L26.0657617,97.2437143 L26.0657617,90.9847208 L32.3692383,90.9847208 Z M32.5708398,90.9847208 L38.8468945,90.9847208 L38.8468945,97.2437143 L32.5708398,97.2437143 L32.5708398,90.9847208 Z M38.8468945,97.4450455 L38.8468945,103.732909 L32.5708398,103.732909 L32.5708398,97.4450455 L38.8468945,97.4450455 Z M39.0484961,97.4450455 L45.3512109,97.4450455 L45.3512109,103.732909 L39.0484961,103.732909 L39.0484961,97.4450455 Z M45.5525586,97.4450455 L51.8286133,97.4450455 L51.8286133,103.732909 L45.5525586,103.732909 L45.5525586,97.4450455 Z M52.0302148,97.4450455 L58.3336914,97.4450455 L58.3336914,103.732909 L52.0302148,103.732909 L52.0302148,97.4450455 Z M58.5355469,97.4450455 L64.8397852,97.4450455 L64.8397852,103.732909 L58.5355469,103.732909 L58.5355469,97.4450455 Z M65.0413867,97.4450455 L71.315918,97.4450455 L71.315918,103.732909 L65.0413867,103.732909 L65.0413867,97.4450455 Z M71.5175195,97.4450455 L77.8209961,97.4450455 L77.8209961,103.732909 L71.5175195,103.732909 L71.5175195,97.4450455 Z M78.0225977,97.4450455 L84.2971289,97.4450455 L84.2971289,103.732909 L78.0225977,103.732909 L78.0225977,97.4450455 Z M78.0225977,97.2439675 L78.0225977,90.984974 L84.2971289,90.984974 L84.2971289,97.2439675 L78.0225977,97.2439675 Z M84.4987305,90.9847208 L90.8029688,90.9847208 L90.8029688,97.2437143 L84.4987305,97.2437143 L84.4987305,90.9847208 Z M84.4987305,90.7841494 L84.4987305,84.4978052 L90.8029688,84.4978052 L90.8029688,90.7841494 L84.4987305,90.7841494 Z M91.0045703,84.4975519 L97.2798633,84.4975519 L97.2798633,90.7838961 L91.0045703,90.7838961 L91.0045703,84.4975519 Z M91.0045703,84.296474 L91.0045703,78.0374805 L97.2798633,78.0374805 L97.2798633,84.296474 L91.0045703,84.296474 Z M97.4814648,78.0374805 L103.784941,78.0374805 L103.784941,84.296474 L97.4814648,84.296474 L97.4814648,78.0374805 Z M97.4814648,77.8364026 L97.4814648,71.548539 L103.784941,71.548539 L103.784941,77.8364026 L97.4814648,77.8364026 Z M97.4814648,71.347461 L97.4814648,65.0884675 L103.784941,65.0884675 L103.784941,71.347461 L97.4814648,71.347461 Z M97.4814648,64.8873896 L97.4814648,58.6002857 L103.784941,58.6002857 L103.784941,64.8873896 L97.4814648,64.8873896 Z M97.4814648,58.3992078 L97.4814648,52.1121039 L103.784941,52.1121039 L103.784941,58.3992078 L97.4814648,58.3992078 Z M97.4814648,51.911026 L97.4814648,45.6520325 L103.784941,45.6520325 L103.784941,51.911026 L97.4814648,51.911026 Z M97.4814648,45.4509545 L97.4814648,39.1630909 L103.784941,39.1630909 L103.784941,45.4509545 L97.4814648,45.4509545 Z M97.4814648,38.962013 L97.4814648,32.7030195 L103.784941,32.7030195 L103.784941,38.962013 L97.4814648,38.962013 Z M97.2798633,38.962013 L91.0045703,38.962013 L91.0045703,32.7030195 L97.2798633,32.7030195 L97.2798633,38.962013 Z M91.0045703,32.5016883 L91.0045703,26.2153442 L97.2798633,26.2153442 L97.2798633,32.5016883 L91.0045703,32.5016883 Z M90.8032227,32.5016883 L84.4987305,32.5016883 L84.4987305,26.2153442 L90.8029688,26.2153442 L90.8032227,32.5016883 L90.8032227,32.5016883 Z M84.4987305,26.0142662 L84.4987305,19.7552727 L90.8029688,19.7552727 L90.8029688,26.0142662 L84.4987305,26.0142662 Z M84.2971289,26.0142662 L78.0225977,26.0142662 L78.0225977,19.7552727 L84.2971289,19.7552727 L84.2971289,26.0142662 Z M78.0225977,19.5544481 L78.0225977,13.2663312 L84.2971289,13.2663312 L84.2971289,19.5541948 L78.0225977,19.5544481 L78.0225977,19.5544481 Z M77.8209961,19.5544481 L71.5175195,19.5544481 L71.5175195,13.2663312 L77.8209961,13.2663312 L77.8209961,19.5544481 Z M71.315918,19.5544481 L65.0413867,19.5544481 L65.0413867,13.2663312 L71.315918,13.2663312 L71.315918,19.5544481 Z M64.8400391,19.5544481 L58.5358008,19.5544481 L58.5358008,13.2663312 L64.8400391,13.2663312 L64.8400391,19.5544481 Z M58.3339453,19.5544481 L52.0304688,19.5544481 L52.0304688,13.2663312 L58.3339453,13.2663312 L58.3339453,19.5544481 L58.3339453,19.5544481 Z M51.8288672,19.5544481 L45.5528125,19.5544481 L45.5528125,13.2663312 L51.8288672,13.2663312 L51.8288672,19.5544481 Z M45.3512109,19.5544481 L39.0484961,19.5544481 L39.0484961,13.2663312 L45.3512109,13.2663312 L45.3512109,19.5544481 Z M38.8468945,19.5544481 L32.5708398,19.5544481 L32.5708398,13.2663312 L38.8468945,13.2663312 L38.8468945,19.5544481 Z M38.8468945,19.7552727 L38.8468945,26.0142662 L32.5708398,26.0142662 L32.5708398,19.7552727 L38.8468945,19.7552727 Z M32.3692383,26.0142662 L26.0657617,26.0142662 L26.0657617,19.7552727 L32.3692383,19.7552727 L32.3692383,26.0142662 L32.3692383,26.0142662 Z M32.3692383,26.2153442 L32.3692383,32.5016883 L26.0657617,32.5016883 L26.0657617,26.2153442 L32.3692383,26.2153442 Z M25.8641602,32.5016883 L19.5886133,32.5016883 L19.5886133,26.2153442 L25.8639063,26.2153442 L25.8639063,32.5016883 L25.8641602,32.5016883 Z M25.8641602,32.7027662 L25.8641602,38.9617597 L19.5886133,38.9617597 L19.5886133,32.7027662 L25.8641602,32.7027662 Z M19.3870117,38.962013 L13.0835352,38.962013 L13.0835352,32.7030195 L19.3870117,32.7030195 C19.3870117,32.7027662 19.3870117,38.962013 19.3870117,38.962013 Z M19.3870117,39.1630909 L19.3870117,45.4509545 L13.0835352,45.4509545 L13.0835352,39.1630909 L19.3870117,39.1630909 Z M19.3870117,45.6520325 L19.3870117,51.911026 L13.0835352,51.911026 L13.0835352,45.6520325 L19.3870117,45.6520325 Z M19.3870117,52.1118506 L19.3870117,58.3989545 L13.0835352,58.3989545 L13.0835352,52.1118506 L19.3870117,52.1118506 Z M19.3870117,58.6000325 L19.3870117,64.8871364 L13.0835352,64.8871364 L13.0835352,58.6000325 L19.3870117,58.6000325 Z M6.60765625,65.0884675 L12.8821875,65.0884675 L12.8821875,71.347461 L6.60765625,71.347461 L6.60765625,65.0884675 Z M6.60765625,71.548539 L12.8821875,71.548539 L12.8821875,77.8364026 L6.60765625,77.8364026 L6.60765625,71.548539 Z M6.60765625,84.296474 L6.60765625,78.0374805 L12.8821875,78.0374805 L12.8821875,84.296474 L6.60765625,84.296474 Z M13.0835352,90.7841494 L13.0835352,84.4978052 L19.3870117,84.4978052 L19.3870117,90.7841494 L13.0835352,90.7841494 Z M19.5886133,97.2439675 L19.5886133,90.984974 L25.8639063,90.984974 L25.8639063,97.2439675 L19.5886133,97.2439675 Z M26.0655078,103.732909 L26.0655078,97.4450455 L32.3689844,97.4450455 L32.3689844,103.732909 L26.0655078,103.732909 Z M32.5708398,110.192981 L32.5708398,103.933987 L38.8468945,103.933987 L38.8468945,110.192981 L32.5708398,110.192981 Z M39.0484961,110.192981 L39.0484961,103.933987 L45.3512109,103.933987 L45.3512109,110.192981 L39.0484961,110.192981 Z M45.5525586,110.192981 L45.5525586,103.933987 L51.8286133,103.933987 L51.8286133,110.192981 L45.5525586,110.192981 Z M52.0302148,110.192981 L52.0302148,103.933987 L58.3336914,103.933987 L58.3336914,110.192981 L52.0302148,110.192981 Z M58.5355469,110.192981 L58.5355469,103.933987 L64.8397852,103.933987 L64.8397852,110.192981 L58.5355469,110.192981 Z M65.0413867,110.192981 L65.0413867,103.933987 L71.315918,103.933987 L71.315918,110.192981 L65.0413867,110.192981 Z M71.5175195,110.192981 L71.5175195,103.933987 L77.8209961,103.933987 L77.8209961,110.192981 L71.5175195,110.192981 Z M84.2971289,110.192981 L78.0225977,110.192981 L78.0225977,103.933987 L84.2971289,103.933987 L84.2971289,110.192981 Z M90.8032227,103.732909 L84.4987305,103.732909 L84.4987305,97.4450455 L90.8029688,97.4450455 L90.8032227,103.732909 L90.8032227,103.732909 Z M97.2798633,97.2439675 L91.0045703,97.2439675 L91.0045703,90.984974 L97.2798633,90.984974 L97.2798633,97.2439675 Z M103.784941,90.7841494 L97.4814648,90.7841494 L97.4814648,84.4978052 L103.784941,84.4978052 L103.784941,90.7841494 Z M110.26209,84.296474 L103.986797,84.296474 L103.986797,78.0374805 L110.26209,78.0374805 L110.26209,84.296474 Z M110.26209,77.8364026 L103.986797,77.8364026 L103.986797,71.548539 L110.26209,71.548539 L110.26209,77.8364026 Z M110.26209,71.347461 L103.986797,71.347461 L103.986797,65.0884675 L110.26209,65.0884675 L110.26209,71.347461 Z M110.26209,64.8873896 L103.986797,64.8873896 L103.986797,58.6002857 L110.26209,58.6002857 L110.26209,64.8873896 Z M110.26209,58.3992078 L103.986797,58.3992078 L103.986797,52.1121039 L110.26209,52.1121039 L110.26209,58.3992078 Z M110.26209,51.911026 L103.986797,51.911026 L103.986797,45.6520325 L110.26209,45.6520325 L110.26209,51.911026 Z M110.26209,45.4509545 L103.986797,45.4509545 L103.986797,39.1630909 L110.26209,39.1630909 L110.26209,45.4509545 Z M110.26209,32.7027662 L110.26209,38.9617597 L103.986797,38.9617597 L103.986797,32.7027662 L110.26209,32.7027662 Z M103.784941,26.2153442 L103.784941,32.5016883 L97.4814648,32.5016883 L97.4814648,26.2153442 L103.784941,26.2153442 Z M97.2798633,19.7552727 L97.2798633,26.0142662 L91.0045703,26.0142662 L91.0045703,19.7552727 L97.2798633,19.7552727 Z M90.8032227,13.2663312 L90.8032227,19.5541948 L84.4987305,19.5541948 L84.4987305,13.2663312 L90.8032227,13.2663312 Z M84.2971289,6.80625974 L84.2971289,13.0652532 L78.0225977,13.0652532 L78.0225977,6.80625974 L84.2971289,6.80625974 Z M77.8209961,6.80625974 L77.8209961,13.0652532 L71.5175195,13.0652532 L71.5175195,6.80625974 L77.8209961,6.80625974 Z M71.315918,6.80625974 L71.315918,13.0652532 L65.0413867,13.0652532 L65.0413867,6.80625974 L71.315918,6.80625974 Z M64.8400391,6.80625974 L64.8400391,13.0652532 L58.5358008,13.0652532 L58.5358008,6.80625974 L64.8400391,6.80625974 Z M58.3339453,6.80625974 L58.3339453,13.0652532 L52.0304688,13.0652532 L52.0304688,6.80625974 L58.3339453,6.80625974 Z M51.8288672,6.80625974 L51.8288672,13.0652532 L45.5528125,13.0652532 L45.5528125,6.80625974 L51.8288672,6.80625974 Z M45.3512109,6.80625974 L45.3512109,13.0652532 L39.0484961,13.0652532 L39.0484961,6.80625974 L45.3512109,6.80625974 Z M32.5708398,6.80625974 L38.8468945,6.80625974 L38.8468945,13.0652532 L32.5708398,13.0652532 L32.5708398,6.80625974 Z M26.0655078,13.2663312 L32.3689844,13.2663312 L32.3689844,19.5541948 L26.0655078,19.5541948 L26.0655078,13.2663312 L26.0655078,13.2663312 Z M19.5886133,19.7552727 L25.8639063,19.7552727 L25.8639063,26.0142662 L19.5886133,26.0142662 L19.5886133,19.7552727 Z M13.0835352,26.2153442 L19.3870117,26.2153442 L19.3870117,32.5016883 L13.0835352,32.5016883 L13.0835352,26.2153442 Z M6.60765625,32.7027662 L12.8821875,32.7027662 L12.8821875,38.9617597 L6.60765625,38.9617597 L6.60765625,32.7027662 Z M6.60765625,39.1630909 L12.8821875,39.1630909 L12.8821875,45.4509545 L6.60765625,45.4509545 L6.60765625,39.1630909 Z M6.60765625,45.6520325 L12.8821875,45.6520325 L12.8821875,51.911026 L6.60765625,51.911026 L6.60765625,45.6520325 Z M6.60765625,52.1118506 L12.8821875,52.1118506 L12.8821875,58.3989545 L6.60765625,58.3989545 L6.60765625,52.1118506 Z" id="Shape" fill-opacity="0.17798913" fill="#FFFFFF"></path>
                    <path d="M114.560977,42.2922078 C114.256289,41.2392078 113.925703,40.1988701 113.563887,39.1714481 L103.404336,56.9093571 L90.4439453,50.4315584 L71.1767773,82.4505584 L58.6726563,69.9814481 L45.6904297,76.4405065 L25.9624219,56.7941299 L12.9700391,69.7542857 L0.0330078125,57.210974 C0.023359375,57.6412403 0,58.067961 0,58.5005065 C0,59.203013 0.0281835938,59.8984286 0.0533203125,60.5946039 L12.9951758,73.1417143 L25.9652148,60.2046039 L45.2138477,79.3741169 L58.1950586,72.9148052 L71.6566602,86.3406818 L91.3635938,53.5900519 L104.368164,60.0893766 L114.560977,42.2922078 Z" id="Shape" fill="#FFFFFF"></path>
                    <path d="M129.95709,29.0073896 L126.989434,18.1605779 L125.825527,18.4781494 C125.824004,18.4781494 125.822227,18.4789091 125.820703,18.4796688 L116.114121,21.1202727 C115.470215,21.2962792 115.089863,21.9585195 115.265566,22.6010065 C115.44127,23.244 116.103711,23.6226039 116.750918,23.4473571 L123.644473,21.5710519 L113.564141,39.1722078 C113.925957,40.1986169 114.256543,41.2399675 114.56123,42.2929675 L125.743262,22.7681494 L127.623691,29.6437987 C127.771211,30.1799221 128.258203,30.5321883 128.789121,30.5321883 C128.894492,30.5321883 129.001895,30.5177532 129.108281,30.4896429 C129.752949,30.3138896 130.132539,29.6503831 129.95709,29.0073896 Z" id="Shape" fill="#FFFFFF"></path>
                    <ellipse id="Oval" fill="#FFFFFF" cx="71.4154492" cy="84.3965065" rx="4.33316406" ry="4.32190909"></ellipse>
                    <ellipse id="Oval" fill="#FFFFFF" cx="71.4179883" cy="84.3965065" rx="2.25113281" ry="2.24528571"></ellipse>
                    <ellipse id="Oval" fill="#FFFFFF" cx="25.9636914" cy="58.5002532" rx="4.33316406" ry="4.32190909"></ellipse>
                    <ellipse id="Oval" fill="#FFFFFF" cx="25.9636914" cy="58.5002532" rx="2.25113281" ry="2.24528571"></ellipse>
                </g>
            </g>
        </g>
    </g>
</svg>