<?xml version="1.0" encoding="UTF-8"?>
<svg width="23px" height="23px" viewBox="0 0 23 23" version="1.1" xmlns="http://www.w3.org/2000/svg" xmlns:xlink="http://www.w3.org/1999/xlink">
    <!-- Generator: sketchtool 41.2 (35397) - http://www.bohemiancoding.com/sketch -->
    <title>77B74E1B-7719-4178-B61C-AD4573DCB053</title>
    <desc>Created with sketchtool.</desc>
    <defs></defs>
    <g id="Page-1" stroke="none" stroke-width="1" fill="none" fill-rule="evenodd">
        <g id="LOGIN" transform="translate(-717.000000, -321.000000)" fill="#3DE689">
            <g id="BG">
                <g id="Group-2">
                    <g id="Utility" transform="translate(138.000000, 161.000000)">
                        <g id="Search" transform="translate(24.000000, 143.000000)">
                            <path d="M571.428571,31.4571429 L570.377143,31.4571429 L569.982857,31.0628571 C571.297143,29.6171429 572.085714,27.6457143 572.085714,25.5428571 C572.085714,20.8114286 568.274286,17 563.542857,17 C558.811429,17 555,20.8114286 555,25.5428571 C555,30.2742857 558.811429,34.0857143 563.542857,34.0857143 C565.645714,34.0857143 567.617143,33.2971429 569.062857,31.9828571 L569.457143,32.3771429 L569.457143,33.4285714 L576.028571,40 L578,38.0285714 L571.428571,31.4571429 Z M563.542857,31.4571429 C560.257143,31.4571429 557.628571,28.8285714 557.628571,25.5428571 C557.628571,22.2571429 560.257143,19.6285714 563.542857,19.6285714 C566.828571,19.6285714 569.457143,22.2571429 569.457143,25.5428571 C569.457143,28.8285714 566.828571,31.4571429 563.542857,31.4571429 Z" id="search-icon"></path>
                        </g>
                    </g>
                </g>
            </g>
        </g>
    </g>
</svg>