<?xml version="1.0" encoding="UTF-8"?>
<svg width="36px" height="38px" viewBox="0 0 36 38" version="1.1" xmlns="http://www.w3.org/2000/svg" xmlns:xlink="http://www.w3.org/1999/xlink">
    <!-- Generator: sketchtool 41.2 (35397) - http://www.bohemiancoding.com/sketch -->
    <title>A9563E53-C60C-4863-8DD1-3EAA31C9C108</title>
    <desc>Created with sketchtool.</desc>
    <defs></defs>
    <g id="Page-1" stroke="none" stroke-width="1" fill="none" fill-rule="evenodd">
        <g id="LOGIN" transform="translate(-52.000000, -781.000000)" fill="#FFFFFF">
            <g id="BG">
                <g id="Group-2">
                    <g id="LHS">
                        <path d="M83.7410266,801.852498 C83.8150274,801.244498 83.870528,800.626998 83.870528,799.999998 C83.870528,799.372998 83.8150274,798.755498 83.7410266,798.147498 L87.6538196,795.002999 C88.0053235,794.717999 88.1070746,794.204999 87.8758221,793.786999 L84.1757814,787.203499 C83.9445288,786.794999 83.4635235,786.623999 83.047269,786.794999 L78.4407183,788.704499 C77.4879578,787.953999 76.4426963,787.317499 75.3141839,786.832999 L74.6204263,781.798 C74.5371754,781.3515 74.1579212,781 73.6954161,781 L66.2953347,781 C65.8328296,781 65.4535755,781.3515 65.3795746,781.798 L64.685817,786.832999 C63.5573046,787.317499 62.5120431,787.944499 61.5592826,788.704499 L56.952732,786.794999 C56.5364774,786.633499 56.0554712,786.794999 55.8242186,787.203499 L52.1241779,793.786999 C51.8929254,794.195499 51.9946765,794.708499 52.3461804,795.002999 L56.2497233,798.147498 C56.1757234,798.755498 56.1202228,799.372998 56.1202228,799.999998 C56.1202228,800.626998 56.1757234,801.244498 56.2497242,801.852498 L52.3461822,804.996998 C51.9946774,805.281998 51.8929263,805.794998 52.1241789,806.212997 L55.8242196,812.796497 C56.0554721,813.204997 56.5364783,813.375999 56.9527329,813.204997 L61.5592826,811.295497 C62.5120431,812.045997 63.5573046,812.682497 64.685817,813.166997 L65.3795746,818.202 C65.4535755,818.648501 65.8328296,819 66.2953347,819 L73.6954161,819 C74.1579212,819 74.5371754,818.648501 74.6111762,818.202 L75.3049338,813.166997 C76.4334462,812.682506 77.4787077,812.055497 78.4314682,811.295497 L83.0380189,813.204997 C83.4542734,813.366497 83.9352787,813.204997 84.1665313,812.796497 L87.866572,806.212997 C88.0978245,805.804498 87.9960734,805.291498 87.6445695,804.996998 L83.7410266,801.852498 Z M70.5,806 C66.9064286,806 64,803.093571 64,799.5 C64,795.906429 66.9064286,793 70.5,793 C74.0935714,793 77,795.906429 77,799.5 C77,803.093571 74.0935714,806 70.5,806 Z" id="settings"></path>
                    </g>
                </g>
            </g>
        </g>
    </g>
</svg>