<?xml version="1.0" encoding="UTF-8"?>
<svg width="114px" height="157px" viewBox="0 0 114 157" version="1.1" xmlns="http://www.w3.org/2000/svg" xmlns:xlink="http://www.w3.org/1999/xlink">
    <!-- Generator: sketchtool 41.2 (35397) - http://www.bohemiancoding.com/sketch -->
    <title>1A47D87D-982C-411D-8C27-4A92DB7DDDC2</title>
    <desc>Created with sketchtool.</desc>
    <defs></defs>
    <g id="Page-1" stroke="none" stroke-width="1" fill="none" fill-rule="evenodd">
        <g id="LOGIN" transform="translate(-220.000000, -779.000000)">
            <g id="BG">
                <g id="Group-2">
                    <g id="Sit-and-go" transform="translate(169.000000, 735.000000)">
                        <g id="sit-and-go" style="mix-blend-mode: luminosity;" transform="translate(51.000000, 44.000000)">
                            <g id="Layer_1">
                                <g id="Group">
                                    <g transform="translate(2.758065, 59.488281)" id="Shape" fill="#C7CBC7">
                                        <path d="M54.2419355,65.0289707 C52.7458387,65.0289707 51.5365806,63.816207 51.5365806,62.3219473 L51.5365806,51.4944668 C51.5365806,50.000207 52.7458387,48.7874434 54.2419355,48.7874434 C55.7380323,48.7874434 56.9472903,50.000207 56.9472903,51.4944668 L56.9472903,62.3219473 C56.9472903,63.816207 55.7380323,65.0289707 54.2419355,65.0289707"></path>
                                        <path d="M13.6634516,81.2701914 C12.1673548,81.2701914 10.9580968,80.0574277 10.9580968,78.563168 L10.9580968,73.1494277 C10.9580968,71.655168 12.1673548,70.4424043 13.6634516,70.4424043 C15.1595484,70.4424043 16.3688065,71.655168 16.3688065,73.1494277 L16.3688065,78.563168 C16.3688065,80.0577344 15.1595484,81.2701914 13.6634516,81.2701914"></path>
                                        <path d="M13.6606935,75.8564512 C12.4296774,75.8564512 11.317871,75.0119629 11.0258226,73.7587227 C10.6902581,72.3024863 11.5991935,70.8487031 13.0548387,70.5104785 L48.2229194,62.3897148 C49.6755,62.0594629 51.1311452,62.9634395 51.4691613,64.4199824 C51.8047258,65.8762188 50.8957903,67.330002 49.4401452,67.6682266 L14.2720645,75.7889902 C14.0667419,75.8349863 13.8611129,75.8564512 13.6606935,75.8564512"></path>
                                        <path d="M94.8204194,81.2701914 C93.3243226,81.2701914 92.1150645,80.0574277 92.1150645,78.563168 L92.1150645,73.1494277 C92.1150645,71.655168 93.3243226,70.4424043 94.8204194,70.4424043 C96.3165161,70.4424043 97.5257742,71.655168 97.5257742,73.1494277 L97.5257742,78.563168 C97.5254677,80.0577344 96.3162097,81.2701914 94.8204194,81.2701914"></path>
                                        <path d="M94.8231774,75.8564512 C94.6230645,75.8564512 94.4174355,75.8346797 94.2118065,75.7886836 L59.0437258,67.6679199 C57.5883871,67.3296953 56.6794516,65.8759121 57.0147097,64.4196758 C57.3527258,62.9634395 58.811129,62.0591563 60.2609516,62.3894082 L95.4290323,70.5104785 C96.884371,70.8487031 97.7933065,72.3024863 97.4580484,73.7587227 C97.1656935,75.0119629 96.0538871,75.8564512 94.8231774,75.8564512"></path>
                                        <path d="M40.7157742,81.2701914 C40.0231935,81.2701914 39.3306129,81.0049473 38.8032097,80.4772188 C37.7453387,79.4186953 37.7453387,77.7079473 38.8032097,76.6497305 L46.9189677,68.5289668 C47.9768387,67.4704434 49.6865323,67.4704434 50.7440968,68.5289668 C51.8019677,69.5874902 51.8019677,71.2982383 50.7440968,72.3564551 L42.6283387,80.4772188 C42.1009355,81.0049473 41.4083548,81.2701914 40.7157742,81.2701914"></path>
                                        <path d="M67.7680968,81.2701914 C67.0755161,81.2701914 66.3829355,81.0049473 65.8555323,80.4772188 L57.7397742,72.3564551 C56.6819032,71.2979316 56.6819032,69.5871836 57.7397742,68.5289668 C58.7976452,67.4704434 60.5073387,67.4704434 61.5649032,68.5289668 L69.6806613,76.6497305 C70.7385323,77.7082539 70.7385323,79.419002 69.6806613,80.4772188 C69.1532581,81.0049473 68.4606774,81.2701914 67.7680968,81.2701914"></path>
                                        <path d="M10.9584032,29.8391992 C4.99056452,29.8391992 0.137596774,24.9829316 0.137596774,19.0117188 L0.137596774,2.77019141 C0.137596774,1.27593164 1.34685484,0.0631679688 2.84295161,0.0631679688 C4.33904839,0.0631679688 5.54830645,1.27593164 5.54830645,2.77019141 L5.54830645,19.0117188 C5.54830645,21.9974785 7.97479032,24.425459 10.9587097,24.425459 C12.4548065,24.425459 13.6640645,25.6382227 13.6640645,27.1324824 C13.6634516,28.6267422 12.4541935,29.8391992 10.9584032,29.8391992"></path>
                                    </g>
                                    <polygon id="Shape" fill="#FF150D" points="0.190306452 62.2584727 11.0111129 62.2584727 11.0111129 51.4309922 0.190306452 51.4309922"></polygon>
                                    <path d="M100.283532,89.3274805 C98.7874355,89.3274805 97.5781774,88.1147168 97.5781774,86.620457 C97.5781774,85.1261973 98.7874355,83.9134336 100.283532,83.9134336 C103.267452,83.9134336 105.693935,81.4854531 105.693935,78.4996934 L105.693935,62.258166 C105.693935,60.7639063 106.903194,59.5511426 108.39929,59.5511426 C109.895387,59.5511426 111.104645,60.7639063 111.104645,62.258166 L111.104645,78.5 C111.104645,84.4715195 106.251371,89.3274805 100.283532,89.3274805" id="Shape" fill="#C7CBC7"></path>
                                    <polygon id="Shape" fill="#FF150D" points="102.988887 62.2584727 113.809694 62.2584727 113.809694 51.4309922 102.988887 51.4309922"></polygon>
                                    <path d="M57,83.880623 C55.5039032,83.880623 54.2946452,82.6678594 54.2946452,81.1735996 L54.2946452,67.6715996 C54.2946452,66.1773398 55.5039032,64.9645762 57,64.9645762 C58.4960968,64.9645762 59.7053548,66.1773398 59.7053548,67.6715996 L59.7053548,81.1735996 C59.7053548,82.668166 58.4960968,83.880623 57,83.880623" id="Shape" fill="#C7CBC7"></path>
                                    <g transform="translate(13.483871, 0.000000)" id="Shape" fill="#FF150D">
                                        <path d="M63.1547742,70.3792363 L23.8774839,70.3792363 C16.8762903,70.3792363 11.2765,64.5567441 11.5470968,57.556752 L13.3027581,11.8725117 C13.5571129,5.24324805 19.0027581,0 25.6331452,0 L61.3991129,0 C68.0295,0 73.4751452,5.24324805 73.7295,11.8725117 L75.4851613,57.556752 C75.7557581,64.5567441 70.1559677,70.3792363 63.1547742,70.3792363"></path>
                                        <path d="M43.5149032,102.861984 C29.9887419,102.861984 0.231370968,100.154961 0.231370968,89.3274805 C0.231370968,83.9974531 5.7285,81.2067168 11.0521774,81.2067168 L76.6159677,81.2067168 C81.2608548,81.2067168 86.7984355,84.0842324 86.7984355,89.3274805 C86.7987419,100.155268 56.9141935,102.861984 43.5149032,102.861984"></path>
                                    </g>
                                    <g transform="translate(51.483871, 102.724609)" id="Shape" fill="#FF150D">
                                        <polygon points="0.105725806 8.25813867 10.9265323 8.25813867 10.9265323 0.137375 0.105725806 0.137375"></polygon>
                                        <polygon points="0.105725806 27.2063828 10.9265323 27.2063828 10.9265323 19.0856191 0.105725806 19.0856191"></polygon>
                                    </g>
                                    <g transform="translate(6.741935, 137.988281)" id="Shape" fill="#38454F">
                                        <path d="M19.1480161,9.53744336 C19.1480161,14.769959 14.908871,19.0117188 9.67958065,19.0117188 C4.45029032,19.0117188 0.211451613,14.769959 0.211451613,9.53744336 C0.211451613,4.30492773 4.45059677,0.0631679688 9.6798871,0.0631679688 C14.9091774,0.0631679688 19.1480161,4.30523438 19.1480161,9.53744336"></path>
                                        <path d="M101.657355,9.53744336 C101.657355,14.769959 97.4182097,19.0117188 92.1889194,19.0117188 C86.959629,19.0117188 82.7204839,14.769959 82.7204839,9.53744336 C82.7204839,4.30492773 86.959629,0.0631679688 92.1889194,0.0631679688 C97.4182097,0.0634746094 101.657355,4.30523438 101.657355,9.53744336"></path>
                                        <path d="M44.8476613,9.53744336 C44.8476613,14.769959 40.6085161,19.0117188 35.3792258,19.0117188 C30.1499355,19.0117188 25.9107903,14.769959 25.9107903,9.53744336 C25.9107903,4.30492773 30.1499355,0.0631679688 35.3792258,0.0631679688 C40.6085161,0.0631679688 44.8476613,4.30523438 44.8476613,9.53744336"></path>
                                        <path d="M74.6050323,9.53744336 C74.6050323,14.769959 70.3658871,19.0117188 65.1365968,19.0117188 C59.9073065,19.0117188 55.6681613,14.769959 55.6681613,9.53744336 C55.6681613,4.30492773 59.9073065,0.0631679688 65.1365968,0.0631679688 C70.3658871,0.0631679688 74.6050323,4.30523438 74.6050323,9.53744336"></path>
                                    </g>
                                </g>
                            </g>
                        </g>
                    </g>
                </g>
            </g>
        </g>
    </g>
</svg>