<?xml version="1.0" encoding="UTF-8"?>
<svg width="163px" height="163px" viewBox="0 0 163 163" version="1.1" xmlns="http://www.w3.org/2000/svg" xmlns:xlink="http://www.w3.org/1999/xlink">
    <!-- Generator: sketchtool 41.2 (35397) - http://www.bohemiancoding.com/sketch -->
    <title>9947A759-D714-4A7C-A273-7F5313B10EFF</title>
    <desc>Created with sketchtool.</desc>
    <defs></defs>
    <g id="Page-1" stroke="none" stroke-width="1" fill="none" fill-rule="evenodd">
        <g id="LOGIN" transform="translate(-827.000000, -501.000000)">
            <g id="BG">
                <g id="Group-2">
                    <g id="Tournament" transform="translate(801.000000, 459.000000)">
                        <g style="mix-blend-mode: luminosity;" transform="translate(26.000000, 42.000000)" id="Layer_1">
                            <g>
                                <path d="M81.3411306,159.877581 C45.7693197,159.877581 16.8293528,130.937296 16.8293528,95.3658031 C16.8293528,59.7943099 45.7693197,30.8537076 81.3411306,30.8537076 C116.912942,30.8537076 145.852908,59.7939922 145.852908,95.3654854 C145.852908,130.936979 116.912942,159.877581 81.3411306,159.877581 Z M81.3411306,36.463386 C48.8618713,36.463386 22.4390312,62.8868616 22.4390312,95.3654854 C22.4390312,127.844109 48.8618713,154.267903 81.3411306,154.267903 C113.82039,154.267903 140.24323,127.844427 140.24323,95.3658031 C140.24323,62.8871793 113.82039,36.463386 81.3411306,36.463386 Z" id="Shape" fill="#E4EAF6"></path>
                                <polygon id="Shape" fill="#D29B6E" points="88.2046062 31.1031326 88.2046062 25.0556101 74.477655 25.0556101 74.477655 31.1031326 81.3411306 38.0145867"></polygon>
                                <path d="M98.6464561,32.1929766 L89.302076,30.0971715 C89.161,30.0657154 89.0310448,30.0120175 88.9096686,29.9468811 L81.3411306,34.1550136 L74.0677719,29.7432105 C73.8793528,29.9122476 73.6454971,30.0377544 73.3801852,30.0971715 L64.0358051,32.1929766 C62.671117,32.4986413 61.7070975,33.6596589 61.7070975,34.9954327 L61.7070975,40.6327544 C61.7070975,41.4280546 62.3835634,42.0724288 63.2176277,42.0724288 L99.465269,42.0724288 C100.299333,42.0724288 100.975799,41.4280546 100.975799,40.6327544 L100.975799,34.9957505 C100.975164,33.6599766 100.011144,32.4992768 98.6464561,32.1929766 Z" id="Shape" fill="#707487"></path>
                                <g id="Group" transform="translate(61.641326, 27.961014)" fill="#5B5D6E">
                                    <path d="M33.7899318,9.44065497 L38.6834269,5.25063353 C39.0936277,5.74567057 39.3338382,6.3684386 39.3338382,7.03473684 L39.3338382,12.6720585 C39.3338382,13.4673587 38.6573723,14.1117329 37.823308,14.1117329 L32.5370877,14.1117329 L32.5370877,12.1176043 C32.5374055,11.0967096 32.9927251,10.1231579 33.7899318,9.44065497 Z" id="Shape"></path>
                                    <path d="M5.60967836,9.44065497 L0.716183236,5.25063353 C0.305982456,5.74567057 0.0657719298,6.3684386 0.0657719298,7.03473684 L0.0657719298,12.6720585 C0.0657719298,13.4673587 0.742237817,14.1117329 1.57630214,14.1117329 L6.86252242,14.1117329 L6.86252242,12.1176043 C6.86220468,11.0967096 6.40688499,10.1231579 5.60967836,9.44065497 Z" id="Shape"></path>
                                    <polygon id="Shape" points="21.587809 14.1120507 17.8118012 14.1120507 18.2836433 6.16985185 21.1156491 6.16985185"></polygon>
                                    <path d="M12.7972476,0.272619883 L19.6998051,6.194 C19.6998051,6.194 17.767,7.12402144 15.3814172,8.99899805 C14.8892398,9.38568616 14.1447778,9.22904094 13.8810546,8.6758577 L10.6382125,1.87561209 L11.664191,0.408612086 C11.9190175,0.0432124756 12.4550429,-0.0209707602 12.7972476,0.272619883 Z" id="Shape"></path>
                                    <path d="M26.6023626,0.272619883 L19.6998051,6.194 C19.6998051,6.194 21.6326101,7.12402144 24.018193,8.99899805 C24.5103704,9.38568616 25.2548324,9.22904094 25.5185556,8.6758577 L28.7613977,1.87561209 L27.7354191,0.408612086 C27.4805926,0.0432124756 26.9445673,-0.0209707602 26.6023626,0.272619883 Z" id="Shape"></path>
                                </g>
                                <path d="M84.1461287,0.000317738791 L78.5364503,0.000317738791 C73.8892027,0.000317738791 70.1217739,3.76774659 70.1217739,8.41499415 L70.1217739,14.5060468 C70.1217739,15.9936998 70.712768,17.4206647 71.7648012,18.4726979 L72.9267719,19.6343509 L89.7561248,19.6343509 L90.9180955,18.4723801 C91.9701287,17.420347 92.5611228,15.9936998 92.5611228,14.505729 L92.5611228,8.41467641 C92.5604873,3.76742885 88.7933762,0.000317738791 84.1461287,0.000317738791 Z" id="Shape" fill="#694B4B"></path>
                                <path d="M72.6277797,14.449807 L72.9871423,22.5349883 C73.0433821,23.7960936 73.648039,24.9656901 74.6362066,25.7231793 L77.4840994,27.9066803 C78.1993294,28.4550975 79.069616,28.7515478 79.9637329,28.7515478 L82.718846,28.7515478 C83.612963,28.7515478 84.4832495,28.4547797 85.1984795,27.9066803 L88.0463723,25.7231793 C89.0342222,24.9653723 89.6391969,23.7960936 89.6954366,22.5349883 L90.0547992,14.449807 C90.1860253,11.4999201 87.8821014,9.0345848 84.9938558,9.0345848 L77.6899942,9.0345848 C74.8007953,9.0345848 72.4965536,11.4999201 72.6277797,14.449807 Z" id="Shape" fill="#F0C087"></path>
                                <polygon id="Shape" fill="#D29B6E" points="26.4975088 95.6149103 26.4975088 89.5677057 12.7705575 89.5677057 12.7705575 95.6149103 19.6340331 102.526365"></polygon>
                                <path d="M36.9393587,96.7050721 L27.5949786,94.6092671 C27.4539025,94.5778109 27.3239474,94.5241131 27.2025712,94.4589766 L19.6340331,98.6674269 L12.3606745,94.2556238 C12.1722554,94.4246608 11.9383996,94.5501676 11.6730877,94.6099025 L2.3287076,96.7053899 C0.964019493,97.0110546 0,98.1714366 0,99.507846 L0,105.145168 C0,105.940786 0.676465887,106.58516 1.51053021,106.58516 L37.7581715,106.58516 C38.5922359,106.58516 39.2687018,105.940786 39.2687018,105.145485 L39.2687018,99.5081637 C39.2680663,98.1714366 38.3040468,97.0110546 36.9393587,96.7050721 Z" id="Shape" fill="#EFF2FA"></path>
                                <g id="Group" transform="translate(0.000000, 97.545809)" fill="#E4EAF6">
                                    <path d="M33.7241598,4.36763743 L38.617655,0.177615984 C39.0278558,0.672653021 39.2680663,1.29542105 39.2680663,1.9617193 L39.2680663,7.59904094 C39.2680663,8.39434113 38.5916004,9.0387154 37.7575361,9.0387154 L32.4713158,9.0387154 L32.4713158,7.04458674 C32.4716335,6.02369201 32.9269532,5.05045809 33.7241598,4.36763743 Z" id="Shape"></path>
                                    <path d="M5.54390643,4.36763743 L0.650411306,0.177615984 C0.240528265,0.672653021 0,1.29542105 0,1.96203704 L0,7.59935867 C0,8.39497661 0.676465887,9.03935088 1.51053021,9.03935088 L6.79643275,9.03935088 L6.79643275,7.04522222 C6.79643275,6.02369201 6.34111306,5.05045809 5.54390643,4.36763743 Z" id="Shape"></path>
                                </g>
                                <polygon id="Shape" fill="#5B5D6E" points="21.522037 106.58516 17.7460292 106.58516 18.2181891 98.6426433 21.0498772 98.6426433"></polygon>
                                <g id="Group" transform="translate(10.485380, 92.461988)" fill="#E4EAF6">
                                    <path d="M2.24641326,0.283423002 L9.14897076,6.20480312 C9.14897076,6.20480312 7.21616569,7.13482456 4.83058285,9.00980117 C4.33840546,9.39648928 3.59394347,9.23984405 3.33022027,8.68666082 L0.0873781676,1.8864152 L1.11335673,0.419415205 C1.3678655,0.0543333333 1.90420858,-0.00984990253 2.24641326,0.283423002 Z" id="Shape"></path>
                                    <path d="M16.0512105,0.283423002 L9.14865302,6.20480312 C9.14865302,6.20480312 11.0814581,7.13482456 13.4670409,9.00980117 C13.9592183,9.39648928 14.7036803,9.23984405 14.9674035,8.68666082 L18.2102456,1.8864152 L17.1842671,0.419415205 C16.9294405,0.0543333333 16.3934152,-0.00984990253 16.0512105,0.283423002 Z" id="Shape"></path>
                                </g>
                                <path d="M22.4390312,64.5120955 L16.8293528,64.5120955 C12.1821053,64.5120955 8.41467641,68.2795244 8.41467641,72.9267719 L8.41467641,79.0178246 C8.41467641,80.5054776 9.00567057,81.9324425 10.0577037,82.9844756 L11.2196745,84.1461287 L28.0490273,84.1461287 L29.2109981,82.9841579 C30.2630312,81.9321248 30.8540253,80.5054776 30.8540253,79.0175068 L30.8540253,72.9267719 C30.8533899,68.2795244 27.0862788,64.5120955 22.4390312,64.5120955 Z" id="Shape" fill="#694B4B"></path>
                                <path d="M10.9206823,78.9615848 L11.2800448,87.0467661 C11.3362846,88.3078713 11.9409415,89.4774678 12.9291092,90.2349571 L15.7770019,92.4184581 C16.492232,92.9668752 17.3625185,93.2633255 18.2566355,93.2633255 L21.0117485,93.2633255 C21.9058655,93.2633255 22.776152,92.9665575 23.4913821,92.4184581 L26.3392749,90.2349571 C27.3274425,89.4771501 27.9320994,88.3078713 27.9883392,87.0467661 L28.3477018,78.9615848 C28.4789279,76.0116979 26.1750039,73.5463626 23.2867583,73.5463626 L15.9822612,73.5463626 C13.0936979,73.5466803 10.7897739,76.0116979 10.9206823,78.9615848 Z" id="Shape" fill="#F0C087"></path>
                                <polygon id="Shape" fill="#D29B6E" points="149.911704 95.6149103 149.911704 89.5677057 136.184752 89.5677057 136.184752 95.6149103 143.048228 102.526365"></polygon>
                                <path d="M160.353554,96.7050721 L151.009173,94.6092671 C150.868097,94.5778109 150.738142,94.5241131 150.616766,94.4589766 L143.048228,98.6674269 L135.774869,94.2556238 C135.58645,94.4246608 135.352595,94.5501676 135.087283,94.6099025 L125.742903,96.7057076 C124.378214,97.0116901 123.414195,98.1723899 123.414195,99.5084815 L123.414195,105.145803 C123.414195,105.941103 124.090661,106.585478 124.924725,106.585478 L161.172366,106.585478 C162.006431,106.585478 162.682897,105.941103 162.682897,105.145803 L162.682897,99.5084815 C162.682261,98.1714366 161.717606,97.0110546 160.353554,96.7050721 Z" id="Shape" fill="#EFF2FA"></path>
                                <g id="Group" transform="translate(123.282651, 97.545809)" fill="#E4EAF6">
                                    <path d="M33.8557037,4.36763743 L38.7491988,0.177615984 C39.1593996,0.672653021 39.3996101,1.29542105 39.3996101,1.9617193 L39.3996101,7.59904094 C39.3996101,8.39434113 38.7231442,9.0387154 37.8890799,9.0387154 L32.6031774,9.0387154 L32.6031774,7.04458674 C32.6031774,6.02369201 33.0584971,5.05045809 33.8557037,4.36763743 Z" id="Shape"></path>
                                    <path d="M5.67545029,4.36763743 L0.781955166,0.177615984 C0.371754386,0.672653021 0.13154386,1.29542105 0.13154386,1.9617193 L0.13154386,7.59904094 C0.13154386,8.39434113 0.808009747,9.0387154 1.64207407,9.0387154 L6.92829435,9.0387154 L6.92829435,7.04458674 C6.92797661,6.02369201 6.47265692,5.05045809 5.67545029,4.36763743 Z" id="Shape"></path>
                                </g>
                                <polygon id="Shape" fill="#5B5D6E" points="144.936232 106.58516 141.160224 106.58516 141.632066 98.6426433 144.464072 98.6426433"></polygon>
                                <g id="Group" transform="translate(133.768031, 92.461988)" fill="#E4EAF6">
                                    <path d="M2.37763938,0.283423002 L9.28019688,6.20480312 C9.28019688,6.20480312 7.34739181,7.13482456 4.96180897,9.00980117 C4.46963158,9.39648928 3.72516959,9.23984405 3.46144639,8.68666082 L0.218604288,1.8864152 L1.24458285,0.419415205 C1.49940936,0.0543333333 2.0354347,-0.00984990253 2.37763938,0.283423002 Z" id="Shape"></path>
                                    <path d="M16.1824366,0.283423002 L9.27987914,6.20480312 C9.27987914,6.20480312 11.2126842,7.13482456 13.5982671,9.00980117 C14.0904444,9.39648928 14.8349064,9.23984405 15.0986296,8.68666082 L18.3414717,1.8864152 L17.3154932,0.419415205 C17.0606667,0.0543333333 16.5246413,-0.00984990253 16.1824366,0.283423002 Z" id="Shape"></path>
                                </g>
                                <path d="M145.852908,64.5120955 L140.24323,64.5120955 C135.595982,64.5120955 131.828554,68.2795244 131.828554,72.9267719 L131.828554,79.0178246 C131.828554,80.5054776 132.419548,81.9324425 133.471581,82.9844756 L134.633552,84.1461287 L151.462904,84.1461287 L152.624875,82.9841579 C153.676908,81.9321248 154.267903,80.5054776 154.267903,79.0175068 L154.267903,72.9267719 C154.267585,68.2795244 150.500474,64.5120955 145.852908,64.5120955 Z" id="Shape" fill="#694B4B"></path>
                                <path d="M134.334877,78.9615848 L134.69424,87.0467661 C134.75048,88.3078713 135.355136,89.4774678 136.343304,90.2349571 L139.191197,92.4184581 C139.906427,92.9668752 140.776713,93.2633255 141.67083,93.2633255 L144.425943,93.2633255 C145.32006,93.2633255 146.190347,92.9665575 146.905577,92.4184581 L149.75347,90.2349571 C150.74132,89.4771501 151.346294,88.3078713 151.402534,87.0467661 L151.761897,78.9615848 C151.893123,76.0116979 149.589199,73.5463626 146.700953,73.5463626 L139.397092,73.5463626 C136.507893,73.5466803 134.203651,76.0116979 134.334877,78.9615848 Z" id="Shape" fill="#F0C087"></path>
                                <polygon id="Shape" fill="#D29B6E" points="88.2046062 151.712329 88.2046062 145.665125 74.477655 145.665125 74.477655 151.712329 81.3411306 158.623784"></polygon>
                                <path d="M98.6464561,152.802173 L89.302076,150.706368 C89.161,150.674912 89.0310448,150.621214 88.9096686,150.556078 L81.3411306,154.764211 L74.0677719,150.352407 C73.8793528,150.521444 73.6454971,150.646951 73.3801852,150.706368 L64.0358051,152.802173 C62.671117,153.108156 61.7070975,154.268856 61.7070975,155.604947 L61.7070975,161.242269 C61.7070975,162.037569 62.3835634,162.681943 63.2176277,162.681943 L99.465269,162.681943 C100.299333,162.681943 100.975799,162.037569 100.975799,161.242269 L100.975799,155.604947 C100.975164,154.268856 100.011144,153.108474 98.6464561,152.802173 Z" id="Shape" fill="#B4E1FA"></path>
                                <g id="Group" transform="translate(61.641326, 153.785575)" fill="#A0D2F0">
                                    <path d="M33.7899318,4.22529045 L38.6834269,0.0352690058 C39.0936277,0.530306043 39.3338382,1.15307407 39.3338382,1.81937232 L39.3338382,7.45669396 C39.3338382,8.25199415 38.6573723,8.89636842 37.823308,8.89636842 L32.5370877,8.89636842 L32.5370877,6.90223977 C32.5374055,5.88134503 32.9927251,4.90811111 33.7899318,4.22529045 Z" id="Shape"></path>
                                    <path d="M5.60967836,4.22529045 L0.716183236,0.0352690058 C0.305982456,0.530306043 0.0657719298,1.15307407 0.0657719298,1.81937232 L0.0657719298,7.45669396 C0.0657719298,8.25199415 0.742237817,8.89636842 1.57630214,8.89636842 L6.86252242,8.89636842 L6.86252242,6.90223977 C6.86220468,5.88134503 6.40688499,4.90811111 5.60967836,4.22529045 Z" id="Shape"></path>
                                </g>
                                <polygon id="Shape" fill="#5B5D6E" points="83.2291345 162.682579 79.4531267 162.682579 79.9249688 154.740062 82.7569747 154.740062"></polygon>
                                <g id="Group" transform="translate(72.126706, 148.384016)" fill="#A0D2F0">
                                    <path d="M2.31186745,0.458814815 L9.21442495,6.38019493 C9.21442495,6.38019493 7.28161988,7.31021637 4.89603704,9.18519298 C4.40385965,9.57188109 3.65939766,9.41523587 3.39567446,8.86205263 L0.152832359,2.06180702 L1.17881092,0.594807018 C1.43363743,0.229407407 1.96966277,0.16554191 2.31186745,0.458814815 Z" id="Shape"></path>
                                    <path d="M16.1169825,0.458814815 L9.21442495,6.38019493 C9.21442495,6.38019493 11.14723,7.31021637 13.5328129,9.18519298 C14.0249903,9.57188109 14.7694522,9.41523587 15.0331754,8.86205263 L18.2760175,2.06180702 L17.250039,0.594807018 C16.9952125,0.229407407 16.4591871,0.16554191 16.1169825,0.458814815 Z" id="Shape"></path>
                                </g>
                                <path d="M84.1461287,120.609515 L78.5364503,120.609515 C73.8892027,120.609515 70.1217739,124.376943 70.1217739,129.024191 L70.1217739,135.115244 C70.1217739,136.602897 70.712768,138.029862 71.7648012,139.081895 L72.9267719,140.243548 L89.7561248,140.243548 L90.9180955,139.081577 C91.9701287,138.029544 92.5611228,136.602897 92.5611228,135.114926 L92.5611228,129.024191 C92.5604873,124.376626 88.7933762,120.609515 84.1461287,120.609515 Z" id="Shape" fill="#694B4B"></path>
                                <path d="M72.6277797,135.059004 L72.9871423,143.144185 C73.0433821,144.40529 73.648039,145.574887 74.6362066,146.332694 L77.4840994,148.516195 C78.1993294,149.064612 79.069616,149.361062 79.9637329,149.361062 L82.718846,149.361062 C83.612963,149.361062 84.4832495,149.064294 85.1984795,148.516195 L88.0463723,146.332694 C89.0342222,145.574887 89.6391969,144.405608 89.6954366,143.144185 L90.0547992,135.059004 C90.1860253,132.109117 87.8821014,129.643782 84.9938558,129.643782 L77.6899942,129.643782 C74.8007953,129.643782 72.4965536,132.109117 72.6277797,135.059004 Z" id="Shape" fill="#F0C087"></path>
                            </g>
                        </g>
                    </g>
                </g>
            </g>
        </g>
    </g>
</svg>