<?xml version="1.0" encoding="UTF-8"?>
<svg width="641px" height="90px" viewBox="0 0 641 90" version="1.1" xmlns="http://www.w3.org/2000/svg" xmlns:xlink="http://www.w3.org/1999/xlink">
    <!-- Generator: sketchtool 41.2 (35397) - http://www.bohemiancoding.com/sketch -->
    <title>227E375F-9D9C-41AA-90BA-E695A5C74FA3</title>
    <desc>Created with sketchtool.</desc>
    <defs></defs>
    <g id="Page-1" stroke="none" stroke-width="1" fill="none" fill-rule="evenodd" opacity="0.340806159">
        <g id="LOGIN" transform="translate(-799.000000, -310.000000)" fill="#FFFFFF">
            <g id="BG">
                <g id="Group-2">
                    <g id="Promotion" transform="translate(799.000000, 0.000000)">
                        <g id="video-overlay" style="mix-blend-mode: luminosity;" transform="translate(0.000000, 310.000000)">
                            <path d="M0,50.2147346 C0,50.2147346 48.7247706,-0.101285395 92.266055,38.68398 C135.807339,77.4692454 190.752294,40.7804808 190.752294,40.7804808 C190.752294,40.7804808 264.357798,5.13996669 339,59.6489883 L339,88.0292915 L1.03669725,89 L0,50.2147346 Z" id="Path-3" opacity="0.578566579"></path>
                            <path d="M0,76.5228478 C0,76.5228478 15.5750799,81.7614239 68.5303514,49.282252 C121.485623,16.8030801 171.325879,38.8050997 171.325879,38.8050997 C171.325879,38.8050997 278.27476,104.811159 342.651757,54.5208281 C378.119825,26.8137132 395.258722,-1.1992309 416.373802,0.0396364875 C433.584053,1.04939913 453.769651,25.8648168 485.942492,50.3299672 C557.587859,104.811159 585.623003,50.3299672 608.466454,53.4731129 C631.309904,56.6162585 650,87 650,87 L1.03833866,87 L0,76.5228478 Z" id="Path-2" fill-opacity="0.61939538"></path>
                            <path d="M196,89.4723109 C196,89.4723109 228.14532,98.8795086 276.881773,38.2553461 C325.618227,-22.3688163 376.428571,49.7530321 376.428571,49.7530321 C376.428571,49.7530321 409.366785,71.3603334 426.20197,71.7031599 C443.585997,72.0571628 479.086207,51.8435205 479.086207,51.8435205 C479.086207,51.8435205 518.490148,11.0789974 577.596059,65.4316948 C581.241316,68.7838051 617,89.4723109 617,89.4723109 L196,89.4723109 Z" id="Path-4" opacity="0.387918943"></path>
                        </g>
                    </g>
                </g>
            </g>
        </g>
    </g>
</svg>