<?xml version="1.0" encoding="UTF-8"?>
<svg width="84px" height="110px" viewBox="0 0 84 110" version="1.1" xmlns="http://www.w3.org/2000/svg" xmlns:xlink="http://www.w3.org/1999/xlink">
    <!-- Generator: sketchtool 41.2 (35397) - http://www.bohemiancoding.com/sketch -->
    <title>B6A4A834-BA5D-4DE4-965E-EEE1C201C485</title>
    <desc>Created with sketchtool.</desc>
    <defs></defs>
    <g id="Page-1" stroke="none" stroke-width="1" fill="none" fill-rule="evenodd">
        <g id="LOGIN" transform="translate(-28.000000, -20.000000)" fill="#FFFFFF">
            <g id="BG">
                <g id="Group-2">
                    <g id="LHS">
                        <path d="M97.1883251,30.074435 C91.0308705,24.8039299 83.7873554,21.6305966 76.3249311,20.4859905 C62.4686079,18.3602531 47.8610928,23.2299905 38.0749513,34.6636067 C23.0183049,52.2549602 25.0727695,78.7206168 42.6641231,93.7775461 C48.8215776,99.0477683 56.0648099,102.220819 63.5272342,103.365708 C77.3832746,105.491728 91.9913554,100.621425 101.777214,89.1875259 C116.83386,71.5964552 114.779113,45.1307986 97.1883251,30.074435 Z M105.314264,74.0881723 L92.5007291,69.6709602 C94.2265473,64.6357683 94.205618,59.1760511 92.5046887,54.1934653 L105.304648,49.7884148 C106.316325,52.7448188 106.962588,55.849142 107.210911,59.0484956 C107.613093,64.2267986 106.952123,69.3216673 105.314264,74.0881723 Z M106.03378,49.4303541 L106.03378,49.4280915 L106.03378,49.4303541 Z M98.1230725,37.3858289 L87.9217392,46.2474047 C87.1668705,45.3833642 86.3438402,44.5614653 85.4464261,43.7933036 C82.2032342,41.0176269 78.4294564,39.2694653 74.5187897,38.5066774 L77.091113,25.2870006 C83.4066685,26.5116471 89.3121231,29.3297481 94.2404059,33.5481319 C95.6375776,34.7439299 96.933214,36.0274047 98.1230725,37.3858289 Z M57.2023453,26.7828794 C59.0203655,26.1281319 60.8850523,25.620738 62.7768907,25.2590006 L65.3469513,38.5075259 C60.315719,39.4880915 55.565618,42.0855865 51.9428705,46.2403339 L41.7313554,37.3598087 C45.9126887,32.5619097 51.2502241,28.9281319 57.2023453,26.7828794 Z M34.5401635,49.7635259 L47.3514362,54.1804552 C45.625618,59.2156471 45.6465473,64.6747986 47.3471938,69.6576673 L34.5364867,74.0663946 C33.5290523,71.1133845 32.885618,68.0138693 32.6378604,64.8213036 C32.2356786,59.6384754 32.8986281,54.5359703 34.5401635,49.7635259 Z M54.4082847,37.3931824 C55.6578987,37.3931824 56.6709109,36.3801701 56.6709109,35.1305562 C56.6709109,33.8809422 55.6578987,32.8679299 54.4082847,32.8679299 C53.1586707,32.8679299 52.1456584,33.8809422 52.1456584,35.1305562 C52.1456584,36.3801701 53.1586707,37.3931824 54.4082847,37.3931824 Z M38.9619008,64.2290612 C40.2115148,64.2290612 41.2245271,63.2160489 41.2245271,61.966435 C41.2245271,60.716821 40.2115148,59.7038087 38.9619008,59.7038087 C37.7122869,59.7038087 36.6992746,60.716821 36.6992746,61.966435 C36.6992746,63.2160489 37.7122869,64.2290612 38.9619008,64.2290612 Z M100.889699,64.1467582 C102.139313,64.1467582 103.152325,63.1337459 103.152325,61.8841319 C103.152325,60.6345179 102.139313,59.6215057 100.889699,59.6215057 C99.6400848,59.6215057 98.6270725,60.6345179 98.6270725,61.8841319 C98.6270725,63.1337459 99.6400848,64.1467582 100.889699,64.1467582 Z M85.3726079,37.3516067 C86.6222219,37.3516067 87.6352342,36.3385944 87.6352342,35.0889804 C87.6352342,33.8393664 86.6222219,32.8263541 85.3726079,32.8263541 C84.1229939,32.8263541 83.1099816,33.8393664 83.1099816,35.0889804 C83.1099816,36.3385944 84.1229939,37.3516067 85.3726079,37.3516067 Z M64.4402037,69.0026484 C62.5402316,70.120279 61,69.2363497 61,67.0261656 L61,56.000132 C61,53.7909201 62.5840529,52.8410666 64.5327325,53.875735 L74.4672675,59.1505626 C76.4183418,60.1865024 76.4613802,61.931368 74.5597963,63.0499468 L64.4402037,69.0026484 Z M41.88,130 L41.88,123.064 L46.656,123.064 C49.584,123.064 51.336,120.976 51.336,118.528 C51.336,116.08 49.632,113.992 46.656,113.992 L41.112,113.992 L41.112,130 L41.88,130 Z M46.632,122.344 L41.88,122.344 L41.88,114.712 L46.632,114.712 C48.984,114.712 50.496,116.32 50.496,118.528 C50.496,120.736 48.984,122.344 46.632,122.344 Z M65.24,130 L65.24,129.28 L57.2,129.28 L57.2,113.992 L56.432,113.992 L56.432,130 L65.24,130 Z M83.056,130 L76.384,113.992 L75.472,113.992 L68.8,130 L69.688,130 L71.464,125.704 L80.392,125.704 L82.168,130 L83.056,130 Z M80.104,124.984 L71.752,124.984 L75.928,114.88 L80.104,124.984 Z M93.264,130 L93.264,123.064 L99.696,113.992 L98.712,113.992 L92.88,122.296 L87.048,113.992 L86.064,113.992 L92.496,123.064 L92.496,130 L93.264,130 Z M58.2884,95.4346667 C59.0152,95.5933333 59.7328,95.696 60.4136,95.696 C61.6464,95.696 62.9988,95.3506667 64.1396,94.6226667 C63.9464,94.6413333 63.7256,94.6413333 63.5416,94.6413333 C61.9868,94.6413333 60.386,94.1373333 58.8036,93.1386667 C56.384,91.58 54.774,88.472 53.7896,85.98 C51.9036,86.6986667 50.3856,87.604 49.7232,88.024 C50.588,89.3493333 54.1208,94.464 58.2884,95.4346667 Z M59.2544,92.42 C60.6896,93.344 62.134,93.792 63.5416,93.792 C64.526,93.792 65.354,93.5866667 66.0072,93.2693333 C65.9244,93.2693333 65.8416,93.288 65.768,93.288 C64.1488,93.288 61.7292,92.6906667 59.512,89.872 C57.8468,87.772 57.2672,84.6173333 57.1292,82.0506667 C55.5284,82.1626667 54.2404,82.424 53.5872,82.564 C53.9736,84.104 55.6388,90.124 59.2544,92.42 Z M65.7588,92.4573333 C66.0808,92.4573333 66.4028,92.4293333 66.7156,92.3733333 C63.9464,91.7013333 62.1432,89.2186667 61.3244,86.876 C60.4688,84.3466667 60.9104,81.304 61.582,78.8586667 C60.0272,78.42 58.6748,78.2426667 58.0124,78.1586667 C57.856,79.7453333 57.488,85.98 60.1376,89.3586667 C62.1524,91.9253333 64.3144,92.4573333 65.7588,92.4573333 Z M67.562,91.664 C65.5472,90.544 63.8636,88.1173333 63.8636,84.4213333 C63.8636,81.6773333 65.216,78.9986667 66.6236,76.9733333 C65.3908,76.152 64.3144,75.5733333 63.7256,75.2933333 C63.0816,76.7493333 60.6988,82.508 62.0972,86.5866667 C63.4772,90.5813333 66.136,91.4866667 67.562,91.664 Z M81.2148,93.1386667 C79.6324,94.1373333 78.0316,94.6413333 76.4676,94.6413333 C76.2744,94.6413333 76.072,94.6413333 75.888,94.6226667 C77.0196,95.3506667 78.372,95.696 79.5956,95.696 C80.2764,95.696 80.994,95.5933333 81.7392,95.4346667 C85.8792,94.464 89.4212,89.3493333 90.286,88.024 C89.642,87.604 88.1056,86.6986667 86.2196,85.98 C85.2536,88.472 83.616,91.5893333 81.2148,93.1386667 Z M74.2688,93.2973333 C74.1676,93.2973333 74.0848,93.2786667 74.0112,93.2786667 C74.6736,93.5866667 75.4832,93.8013333 76.4768,93.8013333 C77.8752,93.8013333 79.3472,93.3533333 80.7732,92.4293333 C84.3796,90.1333333 86.054,84.104 86.4404,82.564 C85.7964,82.424 84.49,82.1626667 82.9076,82.0506667 C82.742,84.6266667 82.1716,87.7813333 80.5064,89.8813333 C78.2892,92.7 75.8972,93.2973333 74.2688,93.2973333 Z M78.6848,86.876 C77.866,89.2186667 76.072,91.7013333 73.2844,92.3733333 C73.6064,92.42 73.9192,92.4573333 74.2596,92.4573333 C75.6856,92.4573333 77.8476,91.9253333 79.8532,89.3586667 C82.5028,85.98 82.144,79.7453333 81.9968,78.1586667 C81.3252,78.2426667 79.9636,78.42 78.4088,78.8586667 C79.0988,81.304 79.5496,84.3466667 78.6848,86.876 Z M72.1804,91.7013333 C73.5144,91.5893333 76.44,90.8333333 77.9028,86.596 C79.3012,82.5173333 76.9368,76.7493333 76.2744,75.3026667 C75.6856,75.5826667 74.508,76.1986667 73.2108,77.104 C74.4988,78.9986667 75.934,81.7333333 75.934,84.4213333 C75.934,88.1453333 74.2228,90.5813333 72.1804,91.7013333 Z M69.6964,91.5333333 C69.724,91.5333333 69.7516,91.552 69.8068,91.5706667 C69.816,91.5706667 69.8436,91.552 69.8896,91.552 L69.8988,91.552 L69.9356,91.552 C69.9632,91.552 70,91.5706667 70.0092,91.5706667 C70.0552,91.552 70.092,91.5333333 70.1196,91.5333333 C71.84,91.272 75.1152,89.48 75.1152,84.4213333 C75.1152,80.1 70.9844,75.452 69.8988,74.304 C68.7396,75.4986667 64.7008,79.904 64.7008,84.4213333 C64.6916,86.624 65.7404,90.9733333 69.6964,91.5333333 Z" id="Yoga-play"></path>
                    </g>
                </g>
            </g>
        </g>
    </g>
</svg>